<?xml version="1.0" encoding="utf-8"?>
<!-- Generator: Adobe Illustrator 20.0.0, SVG Export Plug-In . SVG Version: 6.00 Build 0)  -->
<svg version="1.1" id="Layer_1" xmlns="http://www.w3.org/2000/svg" xmlns:xlink="http://www.w3.org/1999/xlink" x="0px" y="0px"
	 viewBox="0 0 960 237.9" style="enable-background:new 0 0 960 237.9;" xml:space="preserve">
<style type="text/css">
	.st0{fill:#FDF304;}
	.st1{fill:#EDC459;}
	.st2{fill:#FF4C5C;}
	.st3{fill:#6DD0F7;}
	.st4{fill:#6EBE45;}
	.st5{fill:#5183BF;}
	.st6{fill:#FFFFFF;}
	.st7{fill:none;}
	.st8{font-family:'OpenSans-Light';}
	.st9{font-size:15.7507px;}
</style>
<circle class="st0" cx="440.9" cy="117" r="33.1"/>
<circle class="st1" cx="551.5" cy="117.5" r="33.1"/>
<circle class="st2" cx="883.8" cy="117.7" r="33.1"/>
<circle class="st3" cx="774.9" cy="116.7" r="33.1"/>
<circle class="st4" cx="664.2" cy="117.5" r="33.1"/>
<circle class="st5" cx="135" cy="116.4" r="91.9"/>
<circle class="st6" cx="296.9" cy="116.3" r="52.5"/>
<path class="st6" d="M497.6,115.8h8.4v1.6h-8.4v8.4H496v-8.4h-8.4v-1.6h8.4v-8.6h1.6V115.8z"/>
<path class="st6" d="M369.5,114.2v-1.6h18.5v1.6H369.5z M369.5,122.1v-1.6h18.5v1.6H369.5z"/>
<path class="st6" d="M609.8,115.5h8.4v1.6h-8.4v8.4h-1.6v-8.4h-8.4v-1.6h8.4v-8.4h1.6V115.5z"/>
<path class="st6" d="M830.7,115.5h8.4v1.6h-8.4v8.4h-1.6v-8.4h-8.4v-1.6h8.4v-8.4h1.6V115.5z"/>
<path class="st6" d="M718.3,115.5h8.4v1.6h-8.4v8.4h-1.6v-8.4h-8.4v-1.6h8.4v-8.4h1.6V115.5z"/>
<rect x="409.4" y="168.9" class="st7" width="63" height="14.9"/>
<text transform="matrix(1 0 0 1 418.8742 180.8378)" class="st0 st8 st9">THINK</text>
<rect x="505.9" y="168.9" class="st7" width="91.1" height="14.9"/>
<text transform="matrix(1 0 0 1 519.4919 180.8378)" class="st1 st8 st9">MakeMIT</text>
<rect x="632.7" y="168.9" class="st7" width="63" height="14.9"/>
<text transform="matrix(1 0 0 1 645.9225 180.8378)" class="st4 st8 st9">ProjX</text>
<rect x="743.4" y="168.9" class="st7" width="63" height="14.9"/>
<text transform="matrix(1 0 0 1 758.0378 180.8378)" class="st3 st8 st9">xFair</text>
<rect x="852.3" y="168.9" class="st7" width="63" height="14.9"/>
<text transform="matrix(1 0 0 1 853.5427 180.8378)" class="st2 st8 st9">HackMIT</text>
<rect x="182.1" y="171.1" class="st7" width="112.5" height="14.9"/>
<text transform="matrix(1 0 0 1 217.3229 183.0878)" class="st5 st8 st9">TechX</text>
</svg>
