<?xml version="1.0" encoding="utf-8"?>
<!-- Generator: Adobe Illustrator 20.0.0, SVG Export Plug-In . SVG Version: 6.00 Build 0)  -->
<svg version="1.1" id="Layer_1" xmlns="http://www.w3.org/2000/svg" xmlns:xlink="http://www.w3.org/1999/xlink" x="0px" y="0px"
	 viewBox="0 0 960 237.9" style="enable-background:new 0 0 960 237.9;" xml:space="preserve">
<style type="text/css">
	.st0{fill:#FDF304;}
	.st1{fill:#EDC459;}
	.st2{fill:#FF4C5C;}
	.st3{fill:#6DD0F7;}
	.st4{fill:#6EBE45;}
	.st5{fill:#5183BF;}
	.st6{fill:#FFFFFF;}
</style>
<circle class="st0" cx="440.9" cy="117" r="33.1"/>
<circle class="st1" cx="551.5" cy="117.5" r="33.1"/>
<circle class="st2" cx="883.8" cy="117.7" r="33.1"/>
<circle class="st3" cx="774.9" cy="116.7" r="33.1"/>
<circle class="st4" cx="664.2" cy="117.5" r="33.1"/>
<circle class="st5" cx="135" cy="116.4" r="91.9"/>
<circle class="st6" cx="296.9" cy="116.3" r="52.5"/>
<path class="st6" d="M497.6,115.8h8.4v1.6h-8.4v8.4H496v-8.4h-8.4v-1.6h8.4v-8.6h1.6V115.8z"/>
<path class="st6" d="M369.5,114.2v-1.6h18.5v1.6H369.5z M369.5,122.1v-1.6h18.5v1.6H369.5z"/>
<path class="st6" d="M609.8,115.5h8.4v1.6h-8.4v8.4h-1.6v-8.4h-8.4v-1.6h8.4v-8.4h1.6V115.5z"/>
<path class="st6" d="M830.7,115.5h8.4v1.6h-8.4v8.4h-1.6v-8.4h-8.4v-1.6h8.4v-8.4h1.6V115.5z"/>
<path class="st6" d="M718.3,115.5h8.4v1.6h-8.4v8.4h-1.6v-8.4h-8.4v-1.6h8.4v-8.4h1.6V115.5z"/>
<g>
	<path class="st0" d="M423.4,180.8h-0.8v-10.5H419v-0.7h8.1v0.7h-3.7V180.8z"/>
	<path class="st0" d="M436.9,180.8h-0.8v-5.5h-6.6v5.5h-0.8v-11.2h0.8v5h6.6v-5h0.8V180.8z"/>
	<path class="st0" d="M440,180.8v-11.2h0.8v11.2H440z"/>
	<path class="st0" d="M452.2,180.8h-0.8l-6.7-10h-0.1c0.1,1.2,0.1,2.1,0.1,2.7v7.3H444v-11.2h0.8l6.7,10h0c0-0.9-0.1-1.8-0.1-2.6
		v-7.3h0.8V180.8z"/>
	<path class="st0" d="M462.9,180.8h-1l-4.3-5.9l-1.5,1.3v4.6h-0.8v-11.2h0.8v5.8l1.2-1.2l4.4-4.6h1l-4.6,4.8L462.9,180.8z"/>
</g>
<g>
	<path class="st1" d="M526,180.8l-4.2-10.4h-0.1c0,0.6,0.1,1.3,0.1,2v8.4h-0.8v-11.2h1.2l4,9.9h0l4-9.9h1.2v11.2h-0.8v-8.5
		c0-0.6,0-1.2,0.1-1.8h-0.1l-4.2,10.4H526z"/>
	<path class="st1" d="M539.6,180.8l-0.2-1.3h-0.1c-0.4,0.5-0.9,0.9-1.3,1.1s-1,0.3-1.6,0.3c-0.8,0-1.5-0.2-1.9-0.6
		c-0.5-0.4-0.7-1-0.7-1.7c0-0.8,0.3-1.4,1-1.9c0.7-0.5,1.7-0.7,2.9-0.7l1.6,0v-0.6c0-0.8-0.2-1.4-0.5-1.8c-0.3-0.4-0.8-0.6-1.6-0.6
		c-0.8,0-1.6,0.2-2.4,0.6l-0.3-0.7c0.9-0.4,1.8-0.6,2.7-0.6c0.9,0,1.6,0.2,2.1,0.7c0.5,0.5,0.7,1.2,0.7,2.2v5.6H539.6z M536.5,180.3
		c0.9,0,1.6-0.3,2.1-0.8c0.5-0.5,0.8-1.2,0.8-2.1v-0.8l-1.5,0.1c-1.2,0.1-2,0.2-2.5,0.5c-0.5,0.3-0.8,0.8-0.8,1.5
		c0,0.5,0.2,0.9,0.5,1.2C535.4,180.2,535.9,180.3,536.5,180.3z"/>
	<path class="st1" d="M543.6,177.2l4.3-4.7h0.9l-3.3,3.6l3.6,4.8h-0.9l-3.2-4.2l-1.4,1.2v3h-0.8v-12h0.8v6L543.6,177.2L543.6,177.2z
		"/>
	<path class="st1" d="M553.8,181c-1.2,0-2.2-0.4-2.8-1.1c-0.7-0.7-1-1.8-1-3.1c0-1.3,0.3-2.4,1-3.2c0.7-0.8,1.5-1.2,2.7-1.2
		c1,0,1.8,0.3,2.3,1c0.6,0.7,0.9,1.6,0.9,2.8v0.6h-6c0,1.1,0.3,2,0.8,2.6c0.5,0.6,1.3,0.9,2.3,0.9c0.5,0,0.9,0,1.3-0.1
		c0.4-0.1,0.8-0.2,1.4-0.4v0.7c-0.5,0.2-0.9,0.3-1.3,0.4C554.7,181,554.3,181,553.8,181z M553.6,173c-0.8,0-1.5,0.3-1.9,0.8
		c-0.5,0.5-0.8,1.3-0.9,2.3h5.2c0-1-0.2-1.7-0.6-2.3C554.9,173.3,554.3,173,553.6,173z"/>
	<path class="st1" d="M564.2,180.8l-4.2-10.4H560c0,0.6,0.1,1.3,0.1,2v8.4h-0.8v-11.2h1.2l4,9.9h0l4-9.9h1.2v11.2h-0.8v-8.5
		c0-0.6,0-1.2,0.1-1.8h-0.1l-4.2,10.4H564.2z"/>
	<path class="st1" d="M572.9,180.8v-11.2h0.8v11.2H572.9z"/>
	<path class="st1" d="M579.8,180.8H579v-10.5h-3.7v-0.7h8.1v0.7h-3.7V180.8z"/>
</g>
<g>
	<path class="st4" d="M654.3,172.8c0,1.1-0.4,1.9-1.1,2.5c-0.7,0.6-1.8,0.9-3.1,0.9h-1.7v4.6h-0.8v-11.2h2.8
		C652.9,169.6,654.3,170.7,654.3,172.8z M648.3,175.5h1.5c1.3,0,2.2-0.2,2.7-0.6c0.6-0.4,0.8-1.1,0.8-2c0-0.9-0.3-1.5-0.8-1.9
		s-1.4-0.6-2.5-0.6h-1.9V175.5z"/>
	<path class="st4" d="M659.8,172.3c0.4,0,0.7,0,1.1,0.1l-0.1,0.7c-0.3-0.1-0.7-0.1-1.1-0.1c-0.7,0-1.3,0.3-1.8,0.9s-0.7,1.4-0.7,2.3
		v4.6h-0.8v-8.4h0.6l0.1,1.5h0.1c0.3-0.6,0.7-1,1.1-1.3S659.3,172.3,659.8,172.3z"/>
	<path class="st4" d="M669.6,176.6c0,1.4-0.3,2.4-1,3.2c-0.7,0.8-1.6,1.2-2.7,1.2c-0.7,0-1.4-0.2-1.9-0.5s-1-0.9-1.3-1.5
		c-0.3-0.7-0.4-1.4-0.4-2.3c0-1.4,0.3-2.4,1-3.2c0.7-0.8,1.6-1.1,2.7-1.1c1.1,0,2,0.4,2.7,1.2C669.3,174.2,669.6,175.3,669.6,176.6z
		 M663,176.6c0,1.1,0.3,2,0.8,2.7c0.5,0.6,1.2,1,2.1,1s1.6-0.3,2.1-1c0.5-0.6,0.8-1.5,0.8-2.7c0-1.2-0.3-2-0.8-2.7
		c-0.5-0.6-1.2-1-2.2-1s-1.6,0.3-2.1,1C663.2,174.6,663,175.5,663,176.6z"/>
	<path class="st4" d="M670.8,184.6c-0.4,0-0.8-0.1-1-0.2v-0.7c0.4,0.1,0.7,0.2,1,0.2c0.8,0,1.2-0.5,1.2-1.4v-10.1h0.8v10
		c0,0.7-0.2,1.2-0.5,1.6C671.8,184.4,671.4,184.6,670.8,184.6z M671.8,170.2c0-0.5,0.2-0.7,0.5-0.7c0.2,0,0.3,0.1,0.4,0.2
		s0.1,0.3,0.1,0.5c0,0.2,0,0.4-0.1,0.5c-0.1,0.1-0.2,0.2-0.4,0.2C671.9,170.9,671.8,170.7,671.8,170.2z"/>
	<path class="st4" d="M682.5,180.8h-0.9l-3.3-5.2l-3.4,5.2h-0.9l3.8-5.9l-3.4-5.4h0.9l3,4.8l3.1-4.8h0.8l-3.5,5.4L682.5,180.8z"/>
</g>
<g>
	<path class="st3" d="M761.5,176.5l-2.9-4.1h0.9l2.5,3.5l2.5-3.5h0.8l-2.9,4.1l3.1,4.3h-0.9l-2.6-3.7l-2.6,3.7h-0.8L761.5,176.5z"/>
	<path class="st3" d="M768.3,180.8h-0.8v-11.2h6.2v0.7h-5.4v4.8h5.1v0.7h-5.1V180.8z"/>
	<path class="st3" d="M780.3,180.8l-0.2-1.3H780c-0.4,0.5-0.9,0.9-1.3,1.1s-1,0.3-1.6,0.3c-0.8,0-1.5-0.2-1.9-0.6
		c-0.5-0.4-0.7-1-0.7-1.7c0-0.8,0.3-1.4,1-1.9c0.7-0.5,1.7-0.7,2.9-0.7l1.6,0v-0.6c0-0.8-0.2-1.4-0.5-1.8c-0.3-0.4-0.8-0.6-1.6-0.6
		c-0.8,0-1.6,0.2-2.4,0.6l-0.3-0.7c0.9-0.4,1.8-0.6,2.7-0.6c0.9,0,1.6,0.2,2.1,0.7c0.5,0.5,0.7,1.2,0.7,2.2v5.6H780.3z M777.2,180.3
		c0.9,0,1.6-0.3,2.1-0.8c0.5-0.5,0.8-1.2,0.8-2.1v-0.8l-1.5,0.1c-1.2,0.1-2,0.2-2.5,0.5c-0.5,0.3-0.8,0.8-0.8,1.5
		c0,0.5,0.2,0.9,0.5,1.2C776.2,180.2,776.6,180.3,777.2,180.3z"/>
	<path class="st3" d="M783.4,170.2c0-0.5,0.2-0.7,0.5-0.7c0.2,0,0.3,0.1,0.4,0.2s0.1,0.3,0.1,0.5c0,0.2,0,0.4-0.1,0.5
		c-0.1,0.1-0.2,0.2-0.4,0.2C783.6,170.9,783.4,170.7,783.4,170.2z M784.3,180.8h-0.8v-8.4h0.8V180.8z"/>
	<path class="st3" d="M790.4,172.3c0.4,0,0.7,0,1.1,0.1l-0.1,0.7c-0.3-0.1-0.7-0.1-1.1-0.1c-0.7,0-1.3,0.3-1.8,0.9s-0.7,1.4-0.7,2.3
		v4.6h-0.8v-8.4h0.6l0.1,1.5h0.1c0.3-0.6,0.7-1,1.1-1.3S789.8,172.3,790.4,172.3z"/>
</g>
<g>
	<path class="st2" d="M863.3,180.8h-0.8v-5.5h-6.6v5.5h-0.8v-11.2h0.8v5h6.6v-5h0.8V180.8z"/>
	<path class="st2" d="M871.3,180.8l-0.2-1.3h-0.1c-0.4,0.5-0.9,0.9-1.3,1.1s-1,0.3-1.6,0.3c-0.8,0-1.5-0.2-1.9-0.6
		c-0.5-0.4-0.7-1-0.7-1.7c0-0.8,0.3-1.4,1-1.9c0.7-0.5,1.7-0.7,2.9-0.7l1.6,0v-0.6c0-0.8-0.2-1.4-0.5-1.8c-0.3-0.4-0.8-0.6-1.6-0.6
		c-0.8,0-1.6,0.2-2.4,0.6l-0.3-0.7c0.9-0.4,1.8-0.6,2.7-0.6c0.9,0,1.6,0.2,2.1,0.7c0.5,0.5,0.7,1.2,0.7,2.2v5.6H871.3z M868.3,180.3
		c0.9,0,1.6-0.3,2.1-0.8c0.5-0.5,0.8-1.2,0.8-2.1v-0.8l-1.5,0.1c-1.2,0.1-2,0.2-2.5,0.5c-0.5,0.3-0.8,0.8-0.8,1.5
		c0,0.5,0.2,0.9,0.5,1.2C867.2,180.2,867.7,180.3,868.3,180.3z"/>
	<path class="st2" d="M878,181c-1.2,0-2.1-0.4-2.8-1.1s-1-1.8-1-3.2c0-1.4,0.4-2.5,1.1-3.2c0.7-0.8,1.7-1.2,2.9-1.2
		c0.7,0,1.4,0.1,2.1,0.4l-0.2,0.7c-0.7-0.2-1.4-0.4-1.9-0.4c-1,0-1.8,0.3-2.3,1c-0.5,0.6-0.8,1.5-0.8,2.7c0,1.1,0.3,2,0.8,2.6
		c0.5,0.6,1.3,1,2.2,1c0.8,0,1.5-0.1,2.1-0.4v0.7C879.5,180.9,878.8,181,878,181z"/>
	<path class="st2" d="M882.8,177.2l4.3-4.7h0.9l-3.3,3.6l3.6,4.8h-0.9l-3.2-4.2l-1.4,1.2v3h-0.8v-12h0.8v6L882.8,177.2L882.8,177.2z
		"/>
	<path class="st2" d="M894.9,180.8l-4.2-10.4h-0.1c0,0.6,0.1,1.3,0.1,2v8.4h-0.8v-11.2h1.2l4,9.9h0l4-9.9h1.2v11.2h-0.8v-8.5
		c0-0.6,0-1.2,0.1-1.8h-0.1l-4.2,10.4H894.9z"/>
	<path class="st2" d="M903.5,180.8v-11.2h0.8v11.2H903.5z"/>
	<path class="st2" d="M910.4,180.8h-0.8v-10.5H906v-0.7h8.1v0.7h-3.7V180.8z"/>
</g>
<g>
	<path class="st5" d="M221.8,183.1h-0.8v-10.5h-3.7v-0.7h8.1v0.7h-3.7V183.1z"/>
	<path class="st5" d="M230.4,183.2c-1.2,0-2.2-0.4-2.8-1.1c-0.7-0.7-1-1.8-1-3.1c0-1.3,0.3-2.4,1-3.2c0.7-0.8,1.5-1.2,2.7-1.2
		c1,0,1.8,0.3,2.3,1c0.6,0.7,0.9,1.6,0.9,2.8v0.6h-6c0,1.1,0.3,2,0.8,2.6c0.5,0.6,1.3,0.9,2.3,0.9c0.5,0,0.9,0,1.3-0.1
		c0.4-0.1,0.8-0.2,1.4-0.4v0.7c-0.5,0.2-0.9,0.3-1.3,0.4S230.8,183.2,230.4,183.2z M230.1,175.2c-0.8,0-1.5,0.3-1.9,0.8
		c-0.5,0.5-0.8,1.3-0.9,2.3h5.2c0-1-0.2-1.7-0.6-2.3S230.9,175.2,230.1,175.2z"/>
	<path class="st5" d="M239,183.2c-1.2,0-2.1-0.4-2.8-1.1s-1-1.8-1-3.2c0-1.4,0.4-2.5,1.1-3.2c0.7-0.8,1.7-1.2,2.9-1.2
		c0.7,0,1.4,0.1,2.1,0.4l-0.2,0.7c-0.7-0.2-1.4-0.4-1.9-0.4c-1,0-1.8,0.3-2.3,1c-0.5,0.6-0.8,1.5-0.8,2.7c0,1.1,0.3,2,0.8,2.6
		c0.5,0.6,1.3,1,2.2,1c0.8,0,1.5-0.1,2.1-0.4v0.7C240.5,183.1,239.8,183.2,239,183.2z"/>
	<path class="st5" d="M248.9,183.1v-5.4c0-0.8-0.2-1.5-0.5-1.8c-0.4-0.4-0.9-0.6-1.6-0.6c-1,0-1.7,0.3-2.2,0.8
		c-0.5,0.5-0.7,1.3-0.7,2.5v4.6h-0.8v-12h0.8v3.8l0,1.1h0.1c0.3-0.5,0.7-0.9,1.2-1.1c0.5-0.2,1.1-0.3,1.8-0.3c1.9,0,2.8,1,2.8,3.1
		v5.5H248.9z"/>
	<path class="st5" d="M259.5,183.1h-0.9l-3.3-5.2l-3.4,5.2H251l3.8-5.9l-3.4-5.4h0.9l3,4.8l3.1-4.8h0.8l-3.5,5.4L259.5,183.1z"/>
</g>
</svg>
