<?xml version="1.0" encoding="utf-8"?>
<!-- Generator: Adobe Illustrator 20.0.0, SVG Export Plug-In . SVG Version: 6.00 Build 0)  -->
<svg version="1.1" id="Layer_1" xmlns="http://www.w3.org/2000/svg" xmlns:xlink="http://www.w3.org/1999/xlink" x="0px" y="0px"
	 viewBox="0 0 513.6 339.9" style="enable-background:new 0 0 513.6 339.9;" xml:space="preserve">
<style type="text/css">
	.st0{fill:#5184C0;}
	.st1{enable-background:new    ;}
	.st2{fill:#FFFFFF;}
	.st3{fill:none;stroke:#5184C0;stroke-miterlimit:10;}
	.st4{fill:#F9ED27;}
	.st5{fill:none;}
	.st6{fill:none;stroke:#FCFAFC;stroke-width:0.1;stroke-miterlimit:10;}
	.st7{opacity:0.58;fill:#F9ED27;}
	.st8{fill:#EDC358;}
	.st9{opacity:0.78;fill:#EDC358;}
	.st10{fill:#F04F5E;}
	.st11{opacity:0.78;fill:#F04F5E;}
	.st12{fill:#6FD0F6;}
	.st13{opacity:0.76;fill:#6FD0F6;}
	.st14{fill:#70BF46;}
	.st15{opacity:0.73;fill:#70BF46;}
</style>
<circle class="st0" cx="258" cy="62" r="50"/>
<g class="st1">
	<path class="st2" d="M240,45h-4.7v-8.6h4.7V37h-4.1v3.2h3.9v0.6h-3.9v3.7h4.1V45z"/>
	<path class="st2" d="M243.3,41.7l-2.2-3.1h0.7l1.9,2.7l1.9-2.7h0.6l-2.2,3.1l2.3,3.3h-0.7l-2-2.8l-2,2.8H241L243.3,41.7z"/>
	<path class="st2" d="M250.3,45.1c-0.9,0-1.6-0.3-2.2-0.9s-0.8-1.4-0.8-2.4c0-1,0.2-1.8,0.8-2.4s1.2-0.9,2-0.9
		c0.8,0,1.3,0.3,1.8,0.8s0.7,1.2,0.7,2.1v0.5H248c0,0.9,0.2,1.5,0.6,2s1,0.7,1.7,0.7c0.4,0,0.7,0,1-0.1s0.6-0.2,1-0.3v0.5
		c-0.4,0.2-0.7,0.3-1,0.3S250.7,45.1,250.3,45.1z M250.1,39c-0.6,0-1.1,0.2-1.5,0.6s-0.6,1-0.7,1.7h3.9c0-0.7-0.2-1.3-0.5-1.7
		S250.7,39,250.1,39z"/>
	<path class="st2" d="M256.9,45.1c-0.9,0-1.6-0.3-2.1-0.9s-0.8-1.4-0.8-2.4c0-1.1,0.3-1.9,0.8-2.5s1.3-0.9,2.2-0.9
		c0.6,0,1.1,0.1,1.6,0.3l-0.2,0.5c-0.6-0.2-1-0.3-1.4-0.3c-0.8,0-1.4,0.2-1.8,0.7s-0.6,1.2-0.6,2.1c0,0.9,0.2,1.5,0.6,2
		s1,0.7,1.7,0.7c0.6,0,1.1-0.1,1.6-0.3v0.5C258,45,257.5,45.1,256.9,45.1z"/>
	<path class="st2" d="M260.5,38.6v4.1c0,0.6,0.1,1.1,0.4,1.4s0.7,0.4,1.3,0.4c0.8,0,1.3-0.2,1.7-0.6s0.5-1,0.5-1.9v-3.5h0.6V45h-0.5
		l-0.1-0.9h0c-0.4,0.7-1.2,1-2.2,1c-1.4,0-2.2-0.8-2.2-2.3v-4.2H260.5z"/>
	<path class="st2" d="M268.8,44.6c0.4,0,0.7,0,1-0.1v0.5c-0.3,0.1-0.6,0.1-1,0.1c-0.6,0-1-0.2-1.2-0.5s-0.4-0.8-0.4-1.4v-4.1h-0.9
		v-0.3l0.9-0.3l0.3-1.4h0.3v1.5h1.9v0.5h-1.9v4c0,0.5,0.1,0.8,0.3,1.1S268.4,44.6,268.8,44.6z"/>
	<path class="st2" d="M271,36.8c0-0.4,0.1-0.6,0.4-0.6c0.1,0,0.2,0,0.3,0.1s0.1,0.2,0.1,0.4c0,0.2,0,0.3-0.1,0.4s-0.2,0.2-0.3,0.2
		C271.2,37.4,271,37.2,271,36.8z M271.7,45h-0.6v-6.4h0.6V45z"/>
	<path class="st2" d="M275.2,45l-2.5-6.4h0.6l1.6,4.3c0.2,0.6,0.4,1,0.5,1.5h0c0.2-0.5,0.3-1,0.5-1.5l1.6-4.3h0.6l-2.5,6.4H275.2z"
		/>
	<path class="st2" d="M281.9,45.1c-0.9,0-1.6-0.3-2.2-0.9s-0.8-1.4-0.8-2.4c0-1,0.2-1.8,0.8-2.4s1.2-0.9,2-0.9
		c0.8,0,1.3,0.3,1.8,0.8s0.7,1.2,0.7,2.1v0.5h-4.6c0,0.9,0.2,1.5,0.6,2s1,0.7,1.7,0.7c0.4,0,0.7,0,1-0.1s0.6-0.2,1-0.3v0.5
		c-0.4,0.2-0.7,0.3-1,0.3S282.3,45.1,281.9,45.1z M281.7,39c-0.6,0-1.1,0.2-1.5,0.6s-0.6,1-0.7,1.7h3.9c0-0.7-0.2-1.3-0.5-1.7
		S282.3,39,281.7,39z"/>
</g>
<g class="st1">
	<path class="st2" d="M242.1,59.4h-0.6v-8h-2.8v-0.6h6.2v0.6h-2.8V59.4z"/>
	<path class="st2" d="M248.6,59.5c-0.9,0-1.6-0.3-2.2-0.9s-0.8-1.4-0.8-2.4c0-1,0.2-1.8,0.8-2.4s1.2-0.9,2-0.9
		c0.8,0,1.3,0.3,1.8,0.8s0.7,1.2,0.7,2.1v0.5h-4.6c0,0.9,0.2,1.5,0.6,2s1,0.7,1.7,0.7c0.4,0,0.7,0,1-0.1s0.6-0.2,1-0.3v0.5
		c-0.4,0.2-0.7,0.3-1,0.3S249,59.5,248.6,59.5z M248.4,53.4c-0.6,0-1.1,0.2-1.5,0.6s-0.6,1-0.7,1.7h3.9c0-0.7-0.2-1.3-0.5-1.7
		S249,53.4,248.4,53.4z"/>
	<path class="st2" d="M256.5,59.4l-0.1-1h0c-0.3,0.4-0.6,0.7-1,0.9s-0.7,0.3-1.2,0.3c-0.6,0-1.1-0.2-1.5-0.5s-0.5-0.8-0.5-1.3
		c0-0.6,0.3-1.1,0.8-1.4s1.3-0.5,2.2-0.5l1.2,0v-0.4c0-0.6-0.1-1.1-0.4-1.4c-0.2-0.3-0.6-0.5-1.2-0.5c-0.6,0-1.2,0.2-1.8,0.5
		l-0.2-0.5c0.7-0.3,1.4-0.5,2.1-0.5c0.7,0,1.2,0.2,1.6,0.5s0.5,0.9,0.5,1.7v4.2H256.5z M254.1,59c0.7,0,1.2-0.2,1.6-0.6
		c0.4-0.4,0.6-0.9,0.6-1.6v-0.6l-1.1,0c-0.9,0-1.5,0.2-1.9,0.4s-0.6,0.6-0.6,1.1c0,0.4,0.1,0.7,0.4,0.9S253.7,59,254.1,59z"/>
	<path class="st2" d="M266.9,59.4v-4.2c0-0.6-0.1-1.1-0.4-1.4s-0.6-0.4-1.1-0.4c-0.7,0-1.1,0.2-1.4,0.5s-0.5,0.9-0.5,1.7v3.7h-0.6
		V55c0-1.1-0.5-1.6-1.5-1.6c-0.7,0-1.2,0.2-1.5,0.6s-0.5,1-0.5,1.9v3.5H259V53h0.5l0.1,0.9h0c0.2-0.3,0.4-0.6,0.8-0.7
		s0.7-0.3,1.1-0.3c1,0,1.6,0.4,1.9,1.1h0c0.2-0.4,0.5-0.6,0.8-0.8s0.7-0.3,1.2-0.3c0.7,0,1.2,0.2,1.6,0.6s0.5,1,0.5,1.8v4.2H266.9z"
		/>
	<path class="st2" d="M272.3,57.2c0-0.5,0.1-1,0.4-1.4s0.8-0.8,1.6-1.2l-0.4-0.5c-0.3-0.3-0.4-0.5-0.6-0.8s-0.2-0.5-0.2-0.8
		c0-0.6,0.2-1,0.6-1.3s0.9-0.5,1.5-0.5c0.6,0,1.1,0.2,1.4,0.5s0.5,0.8,0.5,1.3c0,0.4-0.1,0.8-0.4,1.1s-0.8,0.7-1.5,1.1l2.6,2.7
		c0.2-0.3,0.4-0.6,0.6-0.9s0.3-0.7,0.4-1.2h0.6c-0.2,1-0.7,1.8-1.2,2.5l1.6,1.6h-0.8l-1.1-1.2c-0.4,0.4-0.7,0.6-1,0.8
		s-0.6,0.3-0.9,0.4s-0.7,0.1-1.1,0.1c-0.8,0-1.5-0.2-1.9-0.6S272.3,57.9,272.3,57.2z M275,59c0.5,0,1-0.1,1.4-0.3s0.8-0.5,1.2-0.9
		l-2.8-2.8c-0.5,0.3-0.9,0.5-1.2,0.7s-0.4,0.4-0.5,0.6s-0.2,0.5-0.2,0.8c0,0.6,0.2,1,0.5,1.3S274.3,59,275,59z M273.8,52.5
		c0,0.3,0.1,0.6,0.2,0.9s0.5,0.6,0.9,1c0.6-0.3,1.1-0.6,1.3-0.9s0.4-0.6,0.4-1c0-0.4-0.1-0.7-0.4-0.9s-0.6-0.3-1-0.3
		c-0.4,0-0.8,0.1-1.1,0.3S273.8,52.1,273.8,52.5z"/>
</g>
<g class="st1">
	<path class="st2" d="M234.5,65.6c-1.1,0-1.9,0.3-2.5,1s-0.9,1.6-0.9,2.8c0,1.2,0.3,2.2,0.9,2.8s1.4,1,2.5,1c0.7,0,1.4-0.1,2-0.3
		v0.5c-0.6,0.2-1.3,0.3-2.1,0.3c-1.2,0-2.2-0.4-2.8-1.2s-1-1.9-1-3.3c0-0.9,0.2-1.6,0.5-2.3s0.8-1.2,1.4-1.5s1.3-0.5,2.2-0.5
		c0.8,0,1.6,0.2,2.2,0.5l-0.2,0.5C235.9,65.8,235.2,65.6,234.5,65.6z"/>
	<path class="st2" d="M243.4,70.6c0,1-0.3,1.9-0.8,2.4s-1.2,0.9-2.1,0.9c-0.6,0-1.1-0.1-1.5-0.4s-0.8-0.7-1-1.2s-0.3-1.1-0.3-1.7
		c0-1,0.3-1.8,0.8-2.4s1.2-0.9,2.1-0.9c0.9,0,1.6,0.3,2.1,0.9S243.4,69.6,243.4,70.6z M238.4,70.6c0,0.9,0.2,1.6,0.6,2
		s0.9,0.7,1.6,0.7s1.2-0.2,1.6-0.7s0.6-1.2,0.6-2c0-0.9-0.2-1.6-0.6-2s-0.9-0.7-1.6-0.7s-1.2,0.2-1.6,0.7S238.4,69.7,238.4,70.6z"/>
	<path class="st2" d="M253.2,73.8v-4.2c0-0.6-0.1-1.1-0.4-1.4s-0.6-0.4-1.1-0.4c-0.7,0-1.1,0.2-1.4,0.5s-0.5,0.9-0.5,1.7v3.7h-0.6
		v-4.4c0-1.1-0.5-1.6-1.5-1.6c-0.7,0-1.2,0.2-1.5,0.6s-0.5,1-0.5,1.9v3.5h-0.6v-6.4h0.5l0.1,0.9h0c0.2-0.3,0.4-0.6,0.8-0.7
		s0.7-0.3,1.1-0.3c1,0,1.6,0.4,1.9,1.1h0c0.2-0.4,0.5-0.6,0.8-0.8s0.7-0.3,1.2-0.3c0.7,0,1.2,0.2,1.6,0.6s0.5,1,0.5,1.8v4.2H253.2z"
		/>
	<path class="st2" d="M263.8,73.8v-4.2c0-0.6-0.1-1.1-0.4-1.4s-0.6-0.4-1.1-0.4c-0.7,0-1.1,0.2-1.4,0.5s-0.5,0.9-0.5,1.7v3.7h-0.6
		v-4.4c0-1.1-0.5-1.6-1.5-1.6c-0.7,0-1.2,0.2-1.5,0.6s-0.5,1-0.5,1.9v3.5h-0.6v-6.4h0.5l0.1,0.9h0c0.2-0.3,0.4-0.6,0.8-0.7
		s0.7-0.3,1.1-0.3c1,0,1.6,0.4,1.9,1.1h0c0.2-0.4,0.5-0.6,0.8-0.8s0.7-0.3,1.2-0.3c0.7,0,1.2,0.2,1.6,0.6s0.5,1,0.5,1.8v4.2H263.8z"
		/>
	<path class="st2" d="M266.3,65.6c0-0.4,0.1-0.6,0.4-0.6c0.1,0,0.2,0,0.3,0.1s0.1,0.2,0.1,0.4c0,0.2,0,0.3-0.1,0.4s-0.2,0.2-0.3,0.2
		C266.4,66.2,266.3,66,266.3,65.6z M267,73.8h-0.6v-6.4h0.6V73.8z"/>
	<path class="st2" d="M270.8,73.4c0.4,0,0.7,0,1-0.1v0.5c-0.3,0.1-0.6,0.1-1,0.1c-0.6,0-1-0.2-1.2-0.5s-0.4-0.8-0.4-1.4v-4.1h-0.9
		v-0.3l0.9-0.3l0.3-1.4h0.3v1.5h1.9v0.5h-1.9v4c0,0.5,0.1,0.8,0.3,1.1S270.4,73.4,270.8,73.4z"/>
	<path class="st2" d="M274.8,73.4c0.4,0,0.7,0,1-0.1v0.5c-0.3,0.1-0.6,0.1-1,0.1c-0.6,0-1-0.2-1.2-0.5s-0.4-0.8-0.4-1.4v-4.1h-0.9
		v-0.3l0.9-0.3l0.3-1.4h0.3v1.5h1.9v0.5h-1.9v4c0,0.5,0.1,0.8,0.3,1.1S274.4,73.4,274.8,73.4z"/>
	<path class="st2" d="M279.7,73.9c-0.9,0-1.6-0.3-2.2-0.9s-0.8-1.4-0.8-2.4c0-1,0.2-1.8,0.8-2.4s1.2-0.9,2-0.9
		c0.8,0,1.3,0.3,1.8,0.8s0.7,1.2,0.7,2.1v0.5h-4.6c0,0.9,0.2,1.5,0.6,2s1,0.7,1.7,0.7c0.4,0,0.7,0,1-0.1s0.6-0.2,1-0.3v0.5
		c-0.4,0.2-0.7,0.3-1,0.3S280.1,73.9,279.7,73.9z M279.6,67.8c-0.6,0-1.1,0.2-1.5,0.6s-0.6,1-0.7,1.7h3.9c0-0.7-0.2-1.3-0.5-1.7
		S280.1,67.8,279.6,67.8z"/>
	<path class="st2" d="M286.3,73.9c-0.9,0-1.6-0.3-2.2-0.9s-0.8-1.4-0.8-2.4c0-1,0.2-1.8,0.8-2.4s1.2-0.9,2-0.9
		c0.8,0,1.3,0.3,1.8,0.8s0.7,1.2,0.7,2.1v0.5H284c0,0.9,0.2,1.5,0.6,2s1,0.7,1.7,0.7c0.4,0,0.7,0,1-0.1s0.6-0.2,1-0.3v0.5
		c-0.4,0.2-0.7,0.3-1,0.3S286.7,73.9,286.3,73.9z M286.1,67.8c-0.6,0-1.1,0.2-1.5,0.6s-0.6,1-0.7,1.7h3.9c0-0.7-0.2-1.3-0.5-1.7
		S286.7,67.8,286.1,67.8z"/>
</g>
<g class="st1">
	<path class="st2" d="M242.5,83.8c0,1.4-0.4,2.5-1.1,3.3s-1.9,1.1-3.3,1.1H236v-8.6h2.3c1.4,0,2.4,0.4,3.1,1.1
		S242.5,82.4,242.5,83.8z M241.8,83.8c0-1.2-0.3-2.1-0.9-2.8s-1.5-0.9-2.7-0.9h-1.6v7.5h1.4C240.5,87.6,241.8,86.4,241.8,83.8z"/>
	<path class="st2" d="M244.2,80c0-0.4,0.1-0.6,0.4-0.6c0.1,0,0.2,0,0.3,0.1s0.1,0.2,0.1,0.4c0,0.2,0,0.3-0.1,0.4s-0.2,0.2-0.3,0.2
		C244.3,80.6,244.2,80.4,244.2,80z M244.9,88.2h-0.6v-6.4h0.6V88.2z"/>
	<path class="st2" d="M249.5,81.7c0.3,0,0.6,0,0.9,0.1l-0.1,0.6c-0.3-0.1-0.5-0.1-0.8-0.1c-0.5,0-1,0.2-1.3,0.7s-0.5,1-0.5,1.7v3.5
		H247v-6.4h0.5l0.1,1.1h0c0.3-0.5,0.5-0.8,0.8-1S249.1,81.7,249.5,81.7z"/>
	<path class="st2" d="M254.3,88.3c-0.9,0-1.6-0.3-2.2-0.9s-0.8-1.4-0.8-2.4c0-1,0.2-1.8,0.8-2.4s1.2-0.9,2-0.9
		c0.8,0,1.3,0.3,1.8,0.8c0.4,0.5,0.7,1.2,0.7,2.1v0.5h-4.6c0,0.9,0.2,1.5,0.6,2s1,0.7,1.7,0.7c0.4,0,0.7,0,1-0.1s0.6-0.2,1-0.3v0.5
		c-0.4,0.2-0.7,0.3-1,0.3S254.6,88.3,254.3,88.3z M254.1,82.2c-0.6,0-1.1,0.2-1.5,0.6s-0.6,1-0.7,1.7h3.9c0-0.7-0.2-1.3-0.5-1.7
		S254.7,82.2,254.1,82.2z"/>
	<path class="st2" d="M260.8,88.3c-0.9,0-1.6-0.3-2.1-0.9c-0.5-0.6-0.8-1.4-0.8-2.4c0-1.1,0.3-1.9,0.8-2.5c0.5-0.6,1.3-0.9,2.2-0.9
		c0.6,0,1.1,0.1,1.6,0.3l-0.2,0.5c-0.6-0.2-1-0.3-1.4-0.3c-0.8,0-1.4,0.2-1.8,0.7c-0.4,0.5-0.6,1.2-0.6,2.1c0,0.9,0.2,1.5,0.6,2
		c0.4,0.5,1,0.7,1.7,0.7c0.6,0,1.1-0.1,1.6-0.3V88C262,88.2,261.5,88.3,260.8,88.3z"/>
	<path class="st2" d="M265.7,87.8c0.4,0,0.7,0,1-0.1v0.5c-0.3,0.1-0.6,0.1-1,0.1c-0.6,0-1-0.2-1.2-0.5s-0.4-0.8-0.4-1.4v-4.1h-0.9
		V82l0.9-0.3l0.3-1.4h0.3v1.5h1.9v0.5h-1.9v4c0,0.5,0.1,0.8,0.3,1.1S265.3,87.8,265.7,87.8z"/>
	<path class="st2" d="M273.3,85c0,1-0.3,1.9-0.8,2.4s-1.2,0.9-2.1,0.9c-0.6,0-1.1-0.1-1.5-0.4s-0.8-0.7-1-1.2s-0.3-1.1-0.3-1.7
		c0-1,0.3-1.8,0.8-2.4s1.2-0.9,2.1-0.9c0.9,0,1.6,0.3,2.1,0.9S273.3,84,273.3,85z M268.2,85c0,0.9,0.2,1.6,0.6,2s0.9,0.7,1.6,0.7
		s1.2-0.2,1.6-0.7s0.6-1.2,0.6-2c0-0.9-0.2-1.6-0.6-2s-0.9-0.7-1.6-0.7s-1.2,0.2-1.6,0.7S268.2,84.1,268.2,85z"/>
	<path class="st2" d="M277.5,81.7c0.3,0,0.6,0,0.9,0.1l-0.1,0.6c-0.3-0.1-0.5-0.1-0.8-0.1c-0.5,0-1,0.2-1.3,0.7s-0.5,1-0.5,1.7v3.5
		H275v-6.4h0.5l0.1,1.1h0c0.3-0.5,0.5-0.8,0.8-1S277.1,81.7,277.5,81.7z"/>
	<path class="st2" d="M283.6,86.5c0,0.6-0.2,1-0.7,1.3s-1,0.5-1.8,0.5c-0.9,0-1.5-0.1-2-0.4v-0.6c0.6,0.3,1.3,0.5,2,0.5
		c0.6,0,1.1-0.1,1.4-0.3s0.5-0.5,0.5-0.8c0-0.3-0.1-0.6-0.4-0.8s-0.7-0.4-1.3-0.6c-0.6-0.2-1.1-0.4-1.3-0.6s-0.5-0.4-0.6-0.6
		s-0.2-0.5-0.2-0.8c0-0.5,0.2-0.9,0.6-1.1s1-0.4,1.7-0.4c0.7,0,1.3,0.1,2,0.4l-0.2,0.5c-0.6-0.3-1.2-0.4-1.7-0.4
		c-0.5,0-0.9,0.1-1.2,0.3s-0.5,0.4-0.5,0.7c0,0.3,0.1,0.6,0.4,0.8s0.7,0.4,1.4,0.7c0.6,0.2,1,0.4,1.3,0.6s0.5,0.4,0.6,0.6
		S283.6,86.2,283.6,86.5z"/>
</g>
<polyline class="st3" points="32.3,139.2 32.3,128.5 256.7,128.5 484.9,128.5 484.9,139 "/>
<line class="st3" x1="258" y1="95.5" x2="258" y2="128.5"/>
<g>
	<g class="st1">
		<path class="st4" d="M407.1,152.5c0,1.4-0.4,2.5-1.1,3.3s-1.9,1.1-3.3,1.1h-2.1v-8.6h2.3c1.4,0,2.4,0.4,3.1,1.1
			S407.1,151.1,407.1,152.5z M406.5,152.5c0-1.2-0.3-2.1-0.9-2.8s-1.5-0.9-2.7-0.9h-1.6v7.5h1.4
			C405.2,156.3,406.5,155.1,406.5,152.5z"/>
		<path class="st4" d="M411.5,157c-0.9,0-1.6-0.3-2.2-0.9s-0.8-1.4-0.8-2.4c0-1,0.2-1.8,0.8-2.4s1.2-0.9,2-0.9
			c0.8,0,1.3,0.3,1.8,0.8s0.7,1.2,0.7,2.1v0.5h-4.6c0,0.9,0.2,1.5,0.6,2s1,0.7,1.7,0.7c0.4,0,0.7,0,1-0.1s0.6-0.2,1-0.3v0.5
			c-0.4,0.2-0.7,0.3-1,0.3S411.9,157,411.5,157z M411.3,150.9c-0.6,0-1.1,0.2-1.5,0.6s-0.6,1-0.7,1.7h3.9c0-0.7-0.2-1.3-0.5-1.7
			S411.9,150.9,411.3,150.9z"/>
		<path class="st4" d="M416.9,156.9l-2.5-6.4h0.6l1.6,4.3c0.2,0.6,0.4,1,0.5,1.5h0c0.2-0.5,0.3-1,0.5-1.5l1.6-4.3h0.6l-2.5,6.4
			H416.9z"/>
		<path class="st4" d="M431.5,152.6c0,1.4-0.3,2.4-1,3.2s-1.6,1.2-2.8,1.2c-1.2,0-2.1-0.4-2.8-1.2s-1-1.9-1-3.2c0-1.4,0.3-2.4,1-3.2
			s1.6-1.2,2.8-1.2c1.2,0,2.1,0.4,2.8,1.2S431.5,151.2,431.5,152.6z M424.5,152.6c0,1.2,0.3,2.2,0.8,2.8s1.3,1,2.4,1
			c1,0,1.8-0.3,2.4-1s0.8-1.6,0.8-2.9c0-1.2-0.3-2.2-0.8-2.8s-1.3-1-2.4-1c-1,0-1.8,0.3-2.4,1S424.5,151.3,424.5,152.6z"/>
		<path class="st4" d="M436,157c-1,0-1.7-0.4-2.1-1.1h0l0,0.5c0,0.3,0,0.6,0,0.9v2.4h-0.6v-9.3h0.5l0.1,0.9h0c0.4-0.7,1.1-1,2.1-1
			c0.9,0,1.5,0.3,2,0.8s0.7,1.4,0.7,2.5c0,1-0.2,1.9-0.7,2.4S436.9,157,436,157z M436,156.5c0.7,0,1.2-0.2,1.5-0.7s0.5-1.2,0.5-2
			c0-1.9-0.7-2.8-2-2.8c-0.7,0-1.3,0.2-1.6,0.6s-0.5,1.1-0.5,2v0.2c0,1,0.2,1.7,0.5,2.1S435.3,156.5,436,156.5z"/>
		<path class="st4" d="M444.4,155.2c0,0.6-0.2,1-0.7,1.3s-1,0.5-1.8,0.5c-0.9,0-1.5-0.1-2-0.4V156c0.6,0.3,1.3,0.5,2,0.5
			c0.6,0,1.1-0.1,1.4-0.3s0.5-0.5,0.5-0.8c0-0.3-0.1-0.6-0.4-0.8s-0.7-0.4-1.3-0.6c-0.6-0.2-1.1-0.4-1.3-0.6s-0.5-0.4-0.6-0.6
			s-0.2-0.5-0.2-0.8c0-0.5,0.2-0.9,0.6-1.1s1-0.4,1.7-0.4c0.7,0,1.3,0.1,2,0.4l-0.2,0.5c-0.6-0.3-1.2-0.4-1.7-0.4
			c-0.5,0-0.9,0.1-1.2,0.3s-0.5,0.4-0.5,0.7c0,0.3,0.1,0.6,0.4,0.8s0.7,0.4,1.4,0.7c0.6,0.2,1,0.4,1.3,0.6s0.5,0.4,0.6,0.6
			S444.4,154.9,444.4,155.2z"/>
	</g>
	<g>
		<circle class="st4" cx="358.1" cy="175.5" r="29.4"/>
		<rect x="329.8" y="170.5" class="st5" width="56" height="13.2"/>
		<g class="st1">
			<path class="st2" d="M344.4,179.6h-0.6v-8H341v-0.6h6.2v0.6h-2.8V179.6z"/>
			<path class="st2" d="M354.7,179.6H354v-4.2h-5v4.2h-0.6v-8.6h0.6v3.8h5v-3.8h0.6V179.6z"/>
			<path class="st2" d="M357.1,179.6v-8.6h0.6v8.6H357.1z"/>
			<path class="st2" d="M366.3,179.6h-0.6l-5.1-7.6h0c0,0.9,0.1,1.6,0.1,2.1v5.6h-0.6v-8.6h0.6l5.1,7.6h0c0-0.7-0.1-1.4-0.1-2v-5.6
				h0.6V179.6z"/>
			<path class="st2" d="M374.5,179.6h-0.7l-3.3-4.5l-1.1,1v3.5h-0.6v-8.6h0.6v4.5l0.9-0.9l3.4-3.5h0.8l-3.5,3.6L374.5,179.6z"/>
		</g>
		<g class="st1">
			<path class="st6" d="M344.4,179.6h-0.6v-8H341v-0.6h6.2v0.6h-2.8V179.6z"/>
			<path class="st6" d="M354.7,179.6H354v-4.2h-5v4.2h-0.6v-8.6h0.6v3.8h5v-3.8h0.6V179.6z"/>
			<path class="st6" d="M357.1,179.6v-8.6h0.6v8.6H357.1z"/>
			<path class="st6" d="M366.3,179.6h-0.6l-5.1-7.6h0c0,0.9,0.1,1.6,0.1,2.1v5.6h-0.6v-8.6h0.6l5.1,7.6h0c0-0.7-0.1-1.4-0.1-2v-5.6
				h0.6V179.6z"/>
			<path class="st6" d="M374.5,179.6h-0.7l-3.3-4.5l-1.1,1v3.5h-0.6v-8.6h0.6v4.5l0.9-0.9l3.4-3.5h0.8l-3.5,3.6L374.5,179.6z"/>
		</g>
		<rect x="377.3" y="215.1" class="st5" width="72.7" height="42.7"/>
		<g class="st1">
			<path class="st4" d="M399,209l-3.2-7.9h0c0,0.5,0,1,0,1.5v6.4h-0.6v-8.6h0.9l3,7.5h0l3-7.5h0.9v8.6h-0.6v-6.5
				c0-0.5,0-0.9,0.1-1.4h0l-3.2,7.9H399z"/>
			<path class="st4" d="M409.3,209l-0.1-1h0c-0.3,0.4-0.6,0.7-1,0.9s-0.7,0.3-1.2,0.3c-0.6,0-1.1-0.2-1.5-0.5s-0.5-0.8-0.5-1.3
				c0-0.6,0.3-1.1,0.8-1.4s1.3-0.5,2.2-0.5l1.2,0v-0.4c0-0.6-0.1-1.1-0.4-1.4s-0.6-0.5-1.2-0.5c-0.6,0-1.2,0.2-1.8,0.5l-0.2-0.5
				c0.7-0.3,1.4-0.5,2.1-0.5c0.7,0,1.2,0.2,1.6,0.5s0.5,0.9,0.5,1.7v4.2H409.3z M406.9,208.6c0.7,0,1.2-0.2,1.6-0.6s0.6-0.9,0.6-1.6
				v-0.6l-1.1,0c-0.9,0-1.5,0.2-1.9,0.4s-0.6,0.6-0.6,1.1c0,0.4,0.1,0.7,0.4,0.9S406.5,208.6,406.9,208.6z"/>
			<path class="st4" d="M414.3,202.6c0.3,0,0.6,0,0.9,0.1l-0.1,0.6c-0.3-0.1-0.5-0.1-0.8-0.1c-0.5,0-1,0.2-1.3,0.7s-0.5,1-0.5,1.7
				v3.5h-0.6v-6.4h0.5l0.1,1.1h0c0.3-0.5,0.5-0.8,0.8-1S413.9,202.6,414.3,202.6z"/>
			<path class="st4" d="M417,206.3l3.3-3.6h0.7l-2.5,2.7l2.7,3.7h-0.7l-2.4-3.2l-1,0.9v2.3h-0.6v-9.1h0.6v4.6L417,206.3L417,206.3z"
				/>
			<path class="st4" d="M424.8,209.2c-0.9,0-1.6-0.3-2.2-0.9s-0.8-1.4-0.8-2.4c0-1,0.2-1.8,0.8-2.4s1.2-0.9,2-0.9
				c0.8,0,1.3,0.3,1.8,0.8s0.7,1.2,0.7,2.1v0.5h-4.6c0,0.9,0.2,1.5,0.6,2s1,0.7,1.7,0.7c0.4,0,0.7,0,1-0.1s0.6-0.2,1-0.3v0.5
				c-0.4,0.2-0.7,0.3-1,0.3S425.2,209.2,424.8,209.2z M424.6,203.1c-0.6,0-1.1,0.2-1.5,0.6s-0.6,1-0.7,1.7h3.9
				c0-0.7-0.2-1.3-0.5-1.7S425.2,203.1,424.6,203.1z"/>
			<path class="st4" d="M430.5,208.7c0.4,0,0.7,0,1-0.1v0.5c-0.3,0.1-0.6,0.1-1,0.1c-0.6,0-1-0.2-1.2-0.5s-0.4-0.8-0.4-1.4v-4.1
				h-0.9v-0.3l0.9-0.3l0.3-1.4h0.3v1.5h1.9v0.5h-1.9v4c0,0.5,0.1,0.8,0.3,1.1S430.1,208.7,430.5,208.7z"/>
			<path class="st4" d="M432.8,200.9c0-0.4,0.1-0.6,0.4-0.6c0.1,0,0.2,0,0.3,0.1s0.1,0.2,0.1,0.4c0,0.2,0,0.3-0.1,0.4
				s-0.2,0.2-0.3,0.2C432.9,201.5,432.8,201.3,432.8,200.9z M433.4,209h-0.6v-6.4h0.6V209z"/>
			<path class="st4" d="M440,209v-4.1c0-0.6-0.1-1.1-0.4-1.4s-0.7-0.4-1.3-0.4c-0.8,0-1.3,0.2-1.7,0.6s-0.5,1-0.5,1.9v3.5h-0.6v-6.4
				h0.5l0.1,0.9h0c0.4-0.7,1.2-1,2.2-1c1.4,0,2.2,0.8,2.2,2.3v4.2H440z"/>
			<path class="st4" d="M447.6,202.7v0.4l-1.3,0.1c0.4,0.4,0.5,0.9,0.5,1.4c0,0.6-0.2,1.1-0.6,1.5s-1,0.6-1.6,0.6
				c-0.3,0-0.5,0-0.6,0c-0.2,0.1-0.4,0.3-0.5,0.4s-0.2,0.3-0.2,0.5c0,0.2,0.1,0.4,0.2,0.4s0.4,0.1,0.8,0.1h1.1
				c0.7,0,1.2,0.1,1.6,0.4s0.6,0.7,0.6,1.2c0,0.7-0.3,1.2-0.8,1.6s-1.3,0.5-2.3,0.5c-0.8,0-1.4-0.2-1.9-0.5s-0.7-0.7-0.7-1.3
				c0-0.4,0.1-0.8,0.4-1.1s0.6-0.5,1.1-0.6c-0.2-0.1-0.3-0.2-0.5-0.3s-0.2-0.3-0.2-0.5c0-0.4,0.3-0.8,0.8-1.1
				c-0.4-0.2-0.7-0.4-0.9-0.7s-0.3-0.7-0.3-1.1c0-0.6,0.2-1.1,0.6-1.5s1-0.6,1.6-0.6c0.4,0,0.7,0,1,0.1H447.6z M442.5,210.1
				c0,0.9,0.7,1.3,2,1.3c1.7,0,2.5-0.5,2.5-1.6c0-0.4-0.1-0.7-0.4-0.8s-0.7-0.3-1.3-0.3h-1C443,208.7,442.5,209.2,442.5,210.1z
				 M442.9,204.7c0,0.5,0.1,0.9,0.4,1.1s0.7,0.4,1.2,0.4c0.5,0,0.9-0.1,1.2-0.4s0.4-0.7,0.4-1.2c0-0.5-0.1-1-0.4-1.2
				s-0.7-0.4-1.2-0.4c-0.5,0-0.9,0.1-1.2,0.4S442.9,204.1,442.9,204.7z"/>
		</g>
		<g class="st1">
			<path class="st4" d="M407.8,182.4h-0.6v-8.6h4.7v0.6h-4.1v3.6h3.9v0.6h-3.9V182.4z"/>
			<path class="st4" d="M413,174.2c0-0.4,0.1-0.6,0.4-0.6c0.1,0,0.2,0,0.3,0.1s0.1,0.2,0.1,0.4c0,0.2,0,0.3-0.1,0.4
				s-0.2,0.2-0.3,0.2C413.1,174.8,413,174.6,413,174.2z M413.7,182.4h-0.6V176h0.6V182.4z"/>
			<path class="st4" d="M420.3,182.4v-4.1c0-0.6-0.1-1.1-0.4-1.4s-0.7-0.4-1.3-0.4c-0.8,0-1.3,0.2-1.7,0.6s-0.5,1-0.5,1.9v3.5h-0.6
				V176h0.5l0.1,0.9h0c0.4-0.7,1.2-1,2.2-1c1.4,0,2.2,0.8,2.2,2.3v4.2H420.3z"/>
			<path class="st4" d="M425.8,173.8l-3.2,8.6H422l3.2-8.6H425.8z"/>
			<path class="st4" d="M427.1,182.4v-8.6h0.6v8.6H427.1z"/>
			<path class="st4" d="M430.8,178.6v3.7h-0.6v-8.6h2c1.1,0,1.8,0.2,2.4,0.6s0.8,1,0.8,1.8c0,0.6-0.2,1.1-0.5,1.5s-0.8,0.7-1.4,0.8
				l2.3,3.9h-0.7l-2.2-3.7H430.8z M430.8,178.1h1.6c0.7,0,1.3-0.2,1.7-0.5s0.6-0.8,0.6-1.4c0-0.7-0.2-1.1-0.6-1.4s-1-0.4-1.9-0.4
				h-1.4V178.1z"/>
		</g>
		<circle class="st7" cx="380.6" cy="152.3" r="11.7"/>
		<circle class="st7" cx="392.3" cy="177.1" r="11.7"/>
		<circle class="st7" cx="380.6" cy="201.9" r="11.7"/>
	</g>
</g>
<g>
	<circle class="st8" cx="68.3" cy="178.5" r="29.4"/>
	<g>
		<rect x="27.5" y="173.1" class="st5" width="81" height="13.2"/>
		<g class="st1">
			<path class="st2" d="M48.6,182.2l-3.2-7.9h0c0,0.5,0,1,0,1.5v6.4h-0.6v-8.6h0.9l3,7.5h0l3-7.5h0.9v8.6h-0.6v-6.5
				c0-0.5,0-0.9,0.1-1.4h0l-3.2,7.9H48.6z"/>
			<path class="st2" d="M58.9,182.2l-0.1-1h0c-0.3,0.4-0.6,0.7-1,0.9s-0.7,0.3-1.2,0.3c-0.6,0-1.1-0.2-1.5-0.5s-0.5-0.8-0.5-1.3
				c0-0.6,0.3-1.1,0.8-1.4s1.3-0.5,2.2-0.5l1.2,0v-0.4c0-0.6-0.1-1.1-0.4-1.4s-0.6-0.5-1.2-0.5c-0.6,0-1.2,0.2-1.8,0.5l-0.2-0.5
				c0.7-0.3,1.4-0.5,2.1-0.5c0.7,0,1.2,0.2,1.6,0.5s0.5,0.9,0.5,1.7v4.2H58.9z M56.5,181.8c0.7,0,1.2-0.2,1.6-0.6s0.6-0.9,0.6-1.6
				V179l-1.1,0c-0.9,0-1.5,0.2-1.9,0.4s-0.6,0.6-0.6,1.1c0,0.4,0.1,0.7,0.4,0.9S56.1,181.8,56.5,181.8z"/>
			<path class="st2" d="M61.9,179.4l3.3-3.6h0.7l-2.5,2.7l2.7,3.7h-0.7L63,179l-1,0.9v2.3h-0.6v-9.1h0.6v4.6L61.9,179.4L61.9,179.4z
				"/>
			<path class="st2" d="M69.7,182.4c-0.9,0-1.6-0.3-2.2-0.9s-0.8-1.4-0.8-2.4c0-1,0.2-1.8,0.8-2.4s1.2-0.9,2-0.9
				c0.8,0,1.3,0.3,1.8,0.8s0.7,1.2,0.7,2.1v0.5h-4.6c0,0.9,0.2,1.5,0.6,2s1,0.7,1.7,0.7c0.4,0,0.7,0,1-0.1s0.6-0.2,1-0.3v0.5
				c-0.4,0.2-0.7,0.3-1,0.3S70.1,182.4,69.7,182.4z M69.6,176.3c-0.6,0-1.1,0.2-1.5,0.6s-0.6,1-0.7,1.7h3.9c0-0.7-0.2-1.3-0.5-1.7
				S70.1,176.3,69.6,176.3z"/>
			<path class="st2" d="M77.7,182.2l-3.2-7.9h0c0,0.5,0,1,0,1.5v6.4h-0.6v-8.6h0.9l3,7.5h0l3-7.5h0.9v8.6h-0.6v-6.5
				c0-0.5,0-0.9,0.1-1.4h0l-3.2,7.9H77.7z"/>
			<path class="st2" d="M84.3,182.2v-8.6h0.6v8.6H84.3z"/>
			<path class="st2" d="M89.5,182.2h-0.6v-8h-2.8v-0.6h6.2v0.6h-2.8V182.2z"/>
		</g>
	</g>
	<circle class="st9" cx="90.8" cy="152.9" r="11.7"/>
	<circle class="st9" cx="104.4" cy="177.6" r="11.7"/>
	<circle class="st9" cx="92.8" cy="202.5" r="11.7"/>
	<g>
		<path class="st8" d="M117.3,150.2c0,1.4-0.4,2.5-1.1,3.3s-1.9,1.1-3.3,1.1h-2.1V146h2.3c1.4,0,2.4,0.4,3.1,1.1
			S117.3,148.9,117.3,150.2z M116.6,150.3c0-1.2-0.3-2.1-0.9-2.8s-1.5-0.9-2.7-0.9h-1.6v7.5h1.4
			C115.3,154.1,116.6,152.8,116.6,150.3z"/>
		<path class="st8" d="M121.7,154.7c-0.9,0-1.6-0.3-2.2-0.9s-0.8-1.4-0.8-2.4c0-1,0.2-1.8,0.8-2.4s1.2-0.9,2-0.9
			c0.8,0,1.3,0.3,1.8,0.8s0.7,1.2,0.7,2.1v0.5h-4.6c0,0.9,0.2,1.5,0.6,2s1,0.7,1.7,0.7c0.4,0,0.7,0,1-0.1s0.6-0.2,1-0.3v0.5
			c-0.4,0.2-0.7,0.3-1,0.3S122,154.7,121.7,154.7z M121.5,148.6c-0.6,0-1.1,0.2-1.5,0.6s-0.6,1-0.7,1.7h3.9c0-0.7-0.2-1.3-0.5-1.7
			S122.1,148.6,121.5,148.6z"/>
		<path class="st8" d="M127.1,154.6l-2.5-6.4h0.6l1.6,4.3c0.2,0.6,0.4,1,0.5,1.5h0c0.2-0.5,0.3-1,0.5-1.5l1.6-4.3h0.6l-2.5,6.4
			H127.1z"/>
		<path class="st8" d="M141.7,150.3c0,1.4-0.3,2.4-1,3.2s-1.6,1.2-2.8,1.2c-1.2,0-2.1-0.4-2.8-1.2s-1-1.9-1-3.2c0-1.4,0.3-2.4,1-3.2
			s1.6-1.2,2.8-1.2c1.2,0,2.1,0.4,2.8,1.2S141.7,148.9,141.7,150.3z M134.7,150.3c0,1.2,0.3,2.2,0.8,2.8s1.3,1,2.4,1
			c1,0,1.8-0.3,2.4-1s0.8-1.6,0.8-2.9c0-1.2-0.3-2.2-0.8-2.8s-1.3-1-2.4-1c-1,0-1.8,0.3-2.4,1S134.7,149.1,134.7,150.3z"/>
		<path class="st8" d="M146.2,154.7c-1,0-1.7-0.4-2.1-1.1h0l0,0.5c0,0.3,0,0.6,0,0.9v2.4h-0.6v-9.3h0.5l0.1,0.9h0
			c0.4-0.7,1.1-1,2.1-1c0.9,0,1.5,0.3,2,0.8s0.7,1.4,0.7,2.5c0,1-0.2,1.9-0.7,2.4S147,154.7,146.2,154.7z M146.2,154.2
			c0.7,0,1.2-0.2,1.5-0.7s0.5-1.2,0.5-2c0-1.9-0.7-2.8-2-2.8c-0.7,0-1.3,0.2-1.6,0.6s-0.5,1.1-0.5,2v0.2c0,1,0.2,1.7,0.5,2.1
			S145.4,154.2,146.2,154.2z"/>
		<path class="st8" d="M154.6,152.9c0,0.6-0.2,1-0.7,1.3s-1,0.5-1.8,0.5c-0.9,0-1.5-0.1-2-0.4v-0.6c0.6,0.3,1.3,0.5,2,0.5
			c0.6,0,1.1-0.1,1.4-0.3s0.5-0.5,0.5-0.8c0-0.3-0.1-0.6-0.4-0.8s-0.7-0.4-1.3-0.6c-0.6-0.2-1.1-0.4-1.3-0.6s-0.5-0.4-0.6-0.6
			s-0.2-0.5-0.2-0.8c0-0.5,0.2-0.9,0.6-1.1s1-0.4,1.7-0.4c0.7,0,1.3,0.1,2,0.4l-0.2,0.5c-0.6-0.3-1.2-0.4-1.7-0.4
			c-0.5,0-0.9,0.1-1.2,0.3s-0.5,0.4-0.5,0.7c0,0.3,0.1,0.6,0.4,0.8s0.7,0.4,1.4,0.7c0.6,0.2,1,0.4,1.3,0.6s0.5,0.4,0.6,0.6
			S154.6,152.7,154.6,152.9z"/>
	</g>
	<g>
		<path class="st8" d="M112.8,208.4l-3.2-7.9h0c0,0.5,0,1,0,1.5v6.4h-0.6v-8.6h0.9l3,7.5h0l3-7.5h0.9v8.6h-0.6v-6.5
			c0-0.5,0-0.9,0.1-1.4h0l-3.2,7.9H112.8z"/>
		<path class="st8" d="M123.1,208.4l-0.1-1h0c-0.3,0.4-0.6,0.7-1,0.9s-0.7,0.3-1.2,0.3c-0.6,0-1.1-0.2-1.5-0.5s-0.5-0.8-0.5-1.3
			c0-0.6,0.3-1.1,0.8-1.4s1.3-0.5,2.2-0.5l1.2,0v-0.4c0-0.6-0.1-1.1-0.4-1.4s-0.6-0.5-1.2-0.5c-0.6,0-1.2,0.2-1.8,0.5l-0.2-0.5
			c0.7-0.3,1.4-0.5,2.1-0.5c0.7,0,1.2,0.2,1.6,0.5s0.5,0.9,0.5,1.7v4.2H123.1z M120.8,208c0.7,0,1.2-0.2,1.6-0.6s0.6-0.9,0.6-1.6
			v-0.6l-1.1,0c-0.9,0-1.5,0.2-1.9,0.4s-0.6,0.6-0.6,1.1c0,0.4,0.1,0.7,0.4,0.9S120.4,208,120.8,208z"/>
		<path class="st8" d="M128.1,201.9c0.3,0,0.6,0,0.9,0.1l-0.1,0.6c-0.3-0.1-0.5-0.1-0.8-0.1c-0.5,0-1,0.2-1.3,0.7s-0.5,1-0.5,1.7
			v3.5h-0.6V202h0.5l0.1,1.1h0c0.3-0.5,0.5-0.8,0.8-1S127.7,201.9,128.1,201.9z"/>
		<path class="st8" d="M130.9,205.6l3.3-3.6h0.7l-2.5,2.7l2.7,3.7h-0.7l-2.4-3.2l-1,0.9v2.3h-0.6v-9.1h0.6v4.6L130.9,205.6
			L130.9,205.6z"/>
		<path class="st8" d="M138.7,208.5c-0.9,0-1.6-0.3-2.2-0.9s-0.8-1.4-0.8-2.4c0-1,0.2-1.8,0.8-2.4s1.2-0.9,2-0.9
			c0.8,0,1.3,0.3,1.8,0.8s0.7,1.2,0.7,2.1v0.5h-4.6c0,0.9,0.2,1.5,0.6,2s1,0.7,1.7,0.7c0.4,0,0.7,0,1-0.1s0.6-0.2,1-0.3v0.5
			c-0.4,0.2-0.7,0.3-1,0.3S139.1,208.5,138.7,208.5z M138.5,202.4c-0.6,0-1.1,0.2-1.5,0.6s-0.6,1-0.7,1.7h3.9c0-0.7-0.2-1.3-0.5-1.7
			S139.1,202.4,138.5,202.4z"/>
		<path class="st8" d="M144.4,208c0.4,0,0.7,0,1-0.1v0.5c-0.3,0.1-0.6,0.1-1,0.1c-0.6,0-1-0.2-1.2-0.5s-0.4-0.8-0.4-1.4v-4.1h-0.9
			v-0.3l0.9-0.3l0.3-1.4h0.3v1.5h1.9v0.5h-1.9v4c0,0.5,0.1,0.8,0.3,1.1S144,208,144.4,208z"/>
		<path class="st8" d="M146.6,200.3c0-0.4,0.1-0.6,0.4-0.6c0.1,0,0.2,0,0.3,0.1s0.1,0.2,0.1,0.4c0,0.2,0,0.3-0.1,0.4
			s-0.2,0.2-0.3,0.2C146.8,200.8,146.6,200.6,146.6,200.3z M147.3,208.4h-0.6V202h0.6V208.4z"/>
		<path class="st8" d="M153.9,208.4v-4.1c0-0.6-0.1-1.1-0.4-1.4s-0.7-0.4-1.3-0.4c-0.8,0-1.3,0.2-1.7,0.6s-0.5,1-0.5,1.9v3.5h-0.6
			V202h0.5l0.1,0.9h0c0.4-0.7,1.2-1,2.2-1c1.4,0,2.2,0.8,2.2,2.3v4.2H153.9z"/>
		<path class="st8" d="M161.5,202v0.4l-1.3,0.1c0.4,0.4,0.5,0.9,0.5,1.4c0,0.6-0.2,1.1-0.6,1.5s-1,0.6-1.6,0.6c-0.3,0-0.5,0-0.6,0
			c-0.2,0.1-0.4,0.3-0.5,0.4s-0.2,0.3-0.2,0.5c0,0.2,0.1,0.4,0.2,0.4s0.4,0.1,0.8,0.1h1.1c0.7,0,1.2,0.1,1.6,0.4s0.6,0.7,0.6,1.2
			c0,0.7-0.3,1.2-0.8,1.6s-1.3,0.5-2.3,0.5c-0.8,0-1.4-0.2-1.9-0.5s-0.7-0.7-0.7-1.3c0-0.4,0.1-0.8,0.4-1.1s0.6-0.5,1.1-0.6
			c-0.2-0.1-0.3-0.2-0.5-0.3s-0.2-0.3-0.2-0.5c0-0.4,0.3-0.8,0.8-1.1c-0.4-0.2-0.7-0.4-0.9-0.7s-0.3-0.7-0.3-1.1
			c0-0.6,0.2-1.1,0.6-1.5s1-0.6,1.6-0.6c0.4,0,0.7,0,1,0.1H161.5z M156.3,209.5c0,0.9,0.7,1.3,2,1.3c1.7,0,2.5-0.5,2.5-1.6
			c0-0.4-0.1-0.7-0.4-0.8s-0.7-0.3-1.3-0.3h-1C156.9,208.1,156.3,208.6,156.3,209.5z M156.8,204c0,0.5,0.1,0.9,0.4,1.1
			s0.7,0.4,1.2,0.4c0.5,0,0.9-0.1,1.2-0.4s0.4-0.7,0.4-1.2c0-0.5-0.1-1-0.4-1.2s-0.7-0.4-1.2-0.4c-0.5,0-0.9,0.1-1.2,0.4
			S156.8,203.5,156.8,204z"/>
	</g>
	<g>
		<path class="st8" d="M121.7,181.7h-0.6v-8.6h4.7v0.6h-4.1v3.6h3.9v0.6h-3.9V181.7z"/>
		<path class="st8" d="M126.9,173.6c0-0.4,0.1-0.6,0.4-0.6c0.1,0,0.2,0,0.3,0.1s0.1,0.2,0.1,0.4c0,0.2,0,0.3-0.1,0.4
			s-0.2,0.2-0.3,0.2C127,174.2,126.9,174,126.9,173.6z M127.6,181.7H127v-6.4h0.6V181.7z"/>
		<path class="st8" d="M134.1,181.7v-4.1c0-0.6-0.1-1.1-0.4-1.4s-0.7-0.4-1.3-0.4c-0.8,0-1.3,0.2-1.7,0.6s-0.5,1-0.5,1.9v3.5h-0.6
			v-6.4h0.5l0.1,0.9h0c0.4-0.7,1.2-1,2.2-1c1.4,0,2.2,0.8,2.2,2.3v4.2H134.1z"/>
		<path class="st8" d="M139.6,173.2l-3.2,8.6h-0.6l3.2-8.6H139.6z"/>
		<path class="st8" d="M141,181.7v-8.6h0.6v8.6H141z"/>
		<path class="st8" d="M144.6,178v3.7H144v-8.6h2c1.1,0,1.8,0.2,2.4,0.6s0.8,1,0.8,1.8c0,0.6-0.2,1.1-0.5,1.5s-0.8,0.7-1.4,0.8
			l2.3,3.9H149l-2.2-3.7H144.6z M144.6,177.5h1.6c0.7,0,1.3-0.2,1.7-0.5s0.6-0.8,0.6-1.4c0-0.7-0.2-1.1-0.6-1.4s-1-0.4-1.9-0.4h-1.4
			V177.5z"/>
	</g>
</g>
<g>
	<g>
		<circle class="st10" cx="151.9" cy="264.1" r="29.4"/>
		<g>
			<rect x="123.6" y="258.5" class="st5" width="56" height="13.2"/>
			<g class="st1">
				<path class="st2" d="M135.9,267.6h-0.6v-4.2h-5v4.2h-0.6V259h0.6v3.8h5V259h0.6V267.6z"/>
				<path class="st2" d="M142,267.6l-0.1-1h0c-0.3,0.4-0.6,0.7-1,0.9s-0.7,0.3-1.2,0.3c-0.6,0-1.1-0.2-1.5-0.5s-0.5-0.8-0.5-1.3
					c0-0.6,0.3-1.1,0.8-1.4s1.3-0.5,2.2-0.5l1.2,0v-0.4c0-0.6-0.1-1.1-0.4-1.4s-0.6-0.5-1.2-0.5c-0.6,0-1.2,0.2-1.8,0.5l-0.2-0.5
					c0.7-0.3,1.4-0.5,2.1-0.5c0.7,0,1.2,0.2,1.6,0.5s0.5,0.9,0.5,1.7v4.2H142z M139.7,267.2c0.7,0,1.2-0.2,1.6-0.6s0.6-0.9,0.6-1.6
					v-0.6l-1.1,0c-0.9,0-1.5,0.2-1.9,0.4s-0.6,0.6-0.6,1.1c0,0.4,0.1,0.7,0.4,0.9S139.2,267.2,139.7,267.2z"/>
				<path class="st2" d="M147.1,267.7c-0.9,0-1.6-0.3-2.1-0.9s-0.8-1.4-0.8-2.4c0-1.1,0.3-1.9,0.8-2.5s1.3-0.9,2.2-0.9
					c0.6,0,1.1,0.1,1.6,0.3l-0.2,0.5c-0.6-0.2-1-0.3-1.4-0.3c-0.8,0-1.4,0.2-1.8,0.7s-0.6,1.2-0.6,2.1c0,0.9,0.2,1.5,0.6,2
					s1,0.7,1.7,0.7c0.6,0,1.1-0.1,1.6-0.3v0.5C148.3,267.6,147.7,267.7,147.1,267.7z"/>
				<path class="st2" d="M150.8,264.8l3.3-3.6h0.7l-2.5,2.7l2.7,3.7h-0.7l-2.4-3.2l-1,0.9v2.3h-0.6v-9.1h0.6v4.6L150.8,264.8
					L150.8,264.8z"/>
				<path class="st2" d="M159.9,267.6l-3.2-7.9h0c0,0.5,0,1,0,1.5v6.4h-0.6V259h0.9l3,7.5h0l3-7.5h0.9v8.6h-0.6v-6.5
					c0-0.5,0-0.9,0.1-1.4h0l-3.2,7.9H159.9z"/>
				<path class="st2" d="M166.5,267.6V259h0.6v8.6H166.5z"/>
				<path class="st2" d="M171.8,267.6h-0.6v-8h-2.8V259h6.2v0.6h-2.8V267.6z"/>
			</g>
		</g>
		<circle class="st11" cx="171.8" cy="239.3" r="11.7"/>
		<circle class="st11" cx="185.5" cy="264" r="11.7"/>
		<circle class="st11" cx="173.8" cy="288.9" r="11.7"/>
		<g>
			<path class="st10" d="M198.3,236.6c0,1.4-0.4,2.5-1.1,3.3s-1.9,1.1-3.3,1.1h-2.1v-8.6h2.3c1.4,0,2.4,0.4,3.1,1.1
				S198.3,235.3,198.3,236.6z M197.7,236.7c0-1.2-0.3-2.1-0.9-2.8s-1.5-0.9-2.7-0.9h-1.6v7.5h1.4
				C196.4,240.5,197.7,239.2,197.7,236.7z"/>
			<path class="st10" d="M202.7,241.1c-0.9,0-1.6-0.3-2.2-0.9s-0.8-1.4-0.8-2.4c0-1,0.2-1.8,0.8-2.4s1.2-0.9,2-0.9
				c0.8,0,1.3,0.3,1.8,0.8s0.7,1.2,0.7,2.1v0.5h-4.6c0,0.9,0.2,1.5,0.6,2s1,0.7,1.7,0.7c0.4,0,0.7,0,1-0.1s0.6-0.2,1-0.3v0.5
				c-0.4,0.2-0.7,0.3-1,0.3S203.1,241.1,202.7,241.1z M202.5,235c-0.6,0-1.1,0.2-1.5,0.6s-0.6,1-0.7,1.7h3.9c0-0.7-0.2-1.3-0.5-1.7
				S203.1,235,202.5,235z"/>
			<path class="st10" d="M208.1,241l-2.5-6.4h0.6l1.6,4.3c0.2,0.6,0.4,1,0.5,1.5h0c0.2-0.5,0.3-1,0.5-1.5l1.6-4.3h0.6l-2.5,6.4
				H208.1z"/>
			<path class="st10" d="M222.7,236.7c0,1.4-0.3,2.4-1,3.2s-1.6,1.2-2.8,1.2c-1.2,0-2.1-0.4-2.8-1.2s-1-1.9-1-3.2
				c0-1.4,0.3-2.4,1-3.2s1.6-1.2,2.8-1.2c1.2,0,2.1,0.4,2.8,1.2S222.7,235.3,222.7,236.7z M215.7,236.7c0,1.2,0.3,2.2,0.8,2.8
				s1.3,1,2.4,1c1,0,1.8-0.3,2.4-1s0.8-1.6,0.8-2.9c0-1.2-0.3-2.2-0.8-2.8s-1.3-1-2.4-1c-1,0-1.8,0.3-2.4,1S215.7,235.5,215.7,236.7
				z"/>
			<path class="st10" d="M227.2,241.1c-1,0-1.7-0.4-2.1-1.1h0l0,0.5c0,0.3,0,0.6,0,0.9v2.4h-0.6v-9.3h0.5l0.1,0.9h0
				c0.4-0.7,1.1-1,2.1-1c0.9,0,1.5,0.3,2,0.8s0.7,1.4,0.7,2.5c0,1-0.2,1.9-0.7,2.4S228.1,241.1,227.2,241.1z M227.2,240.6
				c0.7,0,1.2-0.2,1.5-0.7s0.5-1.2,0.5-2c0-1.9-0.7-2.8-2-2.8c-0.7,0-1.3,0.2-1.6,0.6s-0.5,1.1-0.5,2v0.2c0,1,0.2,1.7,0.5,2.1
				S226.5,240.6,227.2,240.6z"/>
			<path class="st10" d="M235.6,239.3c0,0.6-0.2,1-0.7,1.3s-1,0.5-1.8,0.5c-0.9,0-1.5-0.1-2-0.4v-0.6c0.6,0.3,1.3,0.5,2,0.5
				c0.6,0,1.1-0.1,1.4-0.3s0.5-0.5,0.5-0.8c0-0.3-0.1-0.6-0.4-0.8s-0.7-0.4-1.3-0.6c-0.6-0.2-1.1-0.4-1.3-0.6s-0.5-0.4-0.6-0.6
				s-0.2-0.5-0.2-0.8c0-0.5,0.2-0.9,0.6-1.1s1-0.4,1.7-0.4c0.7,0,1.3,0.1,2,0.4l-0.2,0.5c-0.6-0.3-1.2-0.4-1.7-0.4
				c-0.5,0-0.9,0.1-1.2,0.3s-0.5,0.4-0.5,0.7c0,0.3,0.1,0.6,0.4,0.8s0.7,0.4,1.4,0.7c0.6,0.2,1,0.4,1.3,0.6s0.5,0.4,0.6,0.6
				S235.6,239.1,235.6,239.3z"/>
		</g>
		<g>
			<path class="st10" d="M193.9,294.8l-3.2-7.9h0c0,0.5,0,1,0,1.5v6.4h-0.6v-8.6h0.9l3,7.5h0l3-7.5h0.9v8.6h-0.6v-6.5
				c0-0.5,0-0.9,0.1-1.4h0l-3.2,7.9H193.9z"/>
			<path class="st10" d="M204.2,294.8l-0.1-1h0c-0.3,0.4-0.6,0.7-1,0.9s-0.7,0.3-1.2,0.3c-0.6,0-1.1-0.2-1.5-0.5s-0.5-0.8-0.5-1.3
				c0-0.6,0.3-1.1,0.8-1.4s1.3-0.5,2.2-0.5l1.2,0v-0.4c0-0.6-0.1-1.1-0.4-1.4s-0.6-0.5-1.2-0.5c-0.6,0-1.2,0.2-1.8,0.5l-0.2-0.5
				c0.7-0.3,1.4-0.5,2.1-0.5c0.7,0,1.2,0.2,1.6,0.5s0.5,0.9,0.5,1.7v4.2H204.2z M201.8,294.4c0.7,0,1.2-0.2,1.6-0.6s0.6-0.9,0.6-1.6
				v-0.6l-1.1,0c-0.9,0-1.5,0.2-1.9,0.4s-0.6,0.6-0.6,1.1c0,0.4,0.1,0.7,0.4,0.9S201.4,294.4,201.8,294.4z"/>
			<path class="st10" d="M209.2,288.3c0.3,0,0.6,0,0.9,0.1l-0.1,0.6c-0.3-0.1-0.5-0.1-0.8-0.1c-0.5,0-1,0.2-1.3,0.7s-0.5,1-0.5,1.7
				v3.5h-0.6v-6.4h0.5l0.1,1.1h0c0.3-0.5,0.5-0.8,0.8-1S208.8,288.3,209.2,288.3z"/>
			<path class="st10" d="M211.9,292l3.3-3.6h0.7l-2.5,2.7l2.7,3.7h-0.7l-2.4-3.2l-1,0.9v2.3h-0.6v-9.1h0.6v4.6L211.9,292L211.9,292z
				"/>
			<path class="st10" d="M219.7,294.9c-0.9,0-1.6-0.3-2.2-0.9s-0.8-1.4-0.8-2.4c0-1,0.2-1.8,0.8-2.4s1.2-0.9,2-0.9
				c0.8,0,1.3,0.3,1.8,0.8s0.7,1.2,0.7,2.1v0.5h-4.6c0,0.9,0.2,1.5,0.6,2s1,0.7,1.7,0.7c0.4,0,0.7,0,1-0.1s0.6-0.2,1-0.3v0.5
				c-0.4,0.2-0.7,0.3-1,0.3S220.1,294.9,219.7,294.9z M219.6,288.8c-0.6,0-1.1,0.2-1.5,0.6s-0.6,1-0.7,1.7h3.9
				c0-0.7-0.2-1.3-0.5-1.7S220.1,288.8,219.6,288.8z"/>
			<path class="st10" d="M225.4,294.4c0.4,0,0.7,0,1-0.1v0.5c-0.3,0.1-0.6,0.1-1,0.1c-0.6,0-1-0.2-1.2-0.5s-0.4-0.8-0.4-1.4v-4.1
				h-0.9v-0.3l0.9-0.3l0.3-1.4h0.3v1.5h1.9v0.5h-1.9v4c0,0.5,0.1,0.8,0.3,1.1S225,294.4,225.4,294.4z"/>
			<path class="st10" d="M227.7,286.7c0-0.4,0.1-0.6,0.4-0.6c0.1,0,0.2,0,0.3,0.1s0.1,0.2,0.1,0.4c0,0.2,0,0.3-0.1,0.4
				s-0.2,0.2-0.3,0.2C227.8,287.2,227.7,287,227.7,286.7z M228.3,294.8h-0.6v-6.4h0.6V294.8z"/>
			<path class="st10" d="M234.9,294.8v-4.1c0-0.6-0.1-1.1-0.4-1.4s-0.7-0.4-1.3-0.4c-0.8,0-1.3,0.2-1.7,0.6s-0.5,1-0.5,1.9v3.5h-0.6
				v-6.4h0.5l0.1,0.9h0c0.4-0.7,1.2-1,2.2-1c1.4,0,2.2,0.8,2.2,2.3v4.2H234.9z"/>
			<path class="st10" d="M242.5,288.4v0.4l-1.3,0.1c0.4,0.4,0.5,0.9,0.5,1.4c0,0.6-0.2,1.1-0.6,1.5s-1,0.6-1.6,0.6
				c-0.3,0-0.5,0-0.6,0c-0.2,0.1-0.4,0.3-0.5,0.4s-0.2,0.3-0.2,0.5c0,0.2,0.1,0.4,0.2,0.4s0.4,0.1,0.8,0.1h1.1
				c0.7,0,1.2,0.1,1.6,0.4s0.6,0.7,0.6,1.2c0,0.7-0.3,1.2-0.8,1.6s-1.3,0.5-2.3,0.5c-0.8,0-1.4-0.2-1.9-0.5s-0.7-0.7-0.7-1.3
				c0-0.4,0.1-0.8,0.4-1.1s0.6-0.5,1.1-0.6c-0.2-0.1-0.3-0.2-0.5-0.3s-0.2-0.3-0.2-0.5c0-0.4,0.3-0.8,0.8-1.1
				c-0.4-0.2-0.7-0.4-0.9-0.7s-0.3-0.7-0.3-1.1c0-0.6,0.2-1.1,0.6-1.5s1-0.6,1.6-0.6c0.4,0,0.7,0,1,0.1H242.5z M237.4,295.9
				c0,0.9,0.7,1.3,2,1.3c1.7,0,2.5-0.5,2.5-1.6c0-0.4-0.1-0.7-0.4-0.8s-0.7-0.3-1.3-0.3h-1C237.9,294.5,237.4,295,237.4,295.9z
				 M237.8,290.4c0,0.5,0.1,0.9,0.4,1.1s0.7,0.4,1.2,0.4c0.5,0,0.9-0.1,1.2-0.4s0.4-0.7,0.4-1.2c0-0.5-0.1-1-0.4-1.2
				s-0.7-0.4-1.2-0.4c-0.5,0-0.9,0.1-1.2,0.4S237.8,289.9,237.8,290.4z"/>
		</g>
	</g>
	<g>
		<path class="st10" d="M202.7,268.1h-0.6v-8.6h4.7v0.6h-4.1v3.6h3.9v0.6h-3.9V268.1z"/>
		<path class="st10" d="M207.9,260c0-0.4,0.1-0.6,0.4-0.6c0.1,0,0.2,0,0.3,0.1s0.1,0.2,0.1,0.4c0,0.2,0,0.3-0.1,0.4
			s-0.2,0.2-0.3,0.2C208.1,260.6,207.9,260.4,207.9,260z M208.6,268.1H208v-6.4h0.6V268.1z"/>
		<path class="st10" d="M215.2,268.1V264c0-0.6-0.1-1.1-0.4-1.4s-0.7-0.4-1.3-0.4c-0.8,0-1.3,0.2-1.7,0.6s-0.5,1-0.5,1.9v3.5h-0.6
			v-6.4h0.5l0.1,0.9h0c0.4-0.7,1.2-1,2.2-1c1.4,0,2.2,0.8,2.2,2.3v4.2H215.2z"/>
		<path class="st10" d="M220.7,259.6l-3.2,8.6h-0.6l3.2-8.6H220.7z"/>
		<path class="st10" d="M222,268.1v-8.6h0.6v8.6H222z"/>
		<path class="st10" d="M225.7,264.4v3.7h-0.6v-8.6h2c1.1,0,1.8,0.2,2.4,0.6s0.8,1,0.8,1.8c0,0.6-0.2,1.1-0.5,1.5s-0.8,0.7-1.4,0.8
			l2.3,3.9H230l-2.2-3.7H225.7z M225.7,263.9h1.6c0.7,0,1.3-0.2,1.7-0.5s0.6-0.8,0.6-1.4c0-0.7-0.2-1.1-0.6-1.4s-1-0.4-1.9-0.4h-1.4
			V263.9z"/>
	</g>
</g>
<g>
	<circle class="st12" cx="307.9" cy="262.5" r="29.4"/>
	<g>
		<rect x="279.6" y="257.8" class="st5" width="56" height="13.2"/>
		<g class="st1">
			<path class="st2" d="M297.3,263.7l-2.2-3.1h0.7l1.9,2.7l1.9-2.7h0.6l-2.2,3.1l2.3,3.3h-0.7l-2-2.8l-2,2.8H295L297.3,263.7z"/>
			<path class="st2" d="M302.4,267h-0.6v-8.6h4.7v0.6h-4.1v3.6h3.9v0.6h-3.9V267z"/>
			<path class="st2" d="M311.6,267l-0.1-1h0c-0.3,0.4-0.6,0.7-1,0.9s-0.7,0.3-1.2,0.3c-0.6,0-1.1-0.2-1.5-0.5s-0.5-0.8-0.5-1.3
				c0-0.6,0.3-1.1,0.8-1.4s1.3-0.5,2.2-0.5l1.2,0v-0.4c0-0.6-0.1-1.1-0.4-1.4s-0.6-0.5-1.2-0.5c-0.6,0-1.2,0.2-1.8,0.5l-0.2-0.5
				c0.7-0.3,1.4-0.5,2.1-0.5c0.7,0,1.2,0.2,1.6,0.5s0.5,0.9,0.5,1.7v4.2H311.6z M309.3,266.6c0.7,0,1.2-0.2,1.6-0.6s0.6-0.9,0.6-1.6
				v-0.6l-1.1,0c-0.9,0-1.5,0.2-1.9,0.4s-0.6,0.6-0.6,1.1c0,0.4,0.1,0.7,0.4,0.9S308.8,266.6,309.3,266.6z"/>
			<path class="st2" d="M314,258.8c0-0.4,0.1-0.6,0.4-0.6c0.1,0,0.2,0,0.3,0.1s0.1,0.2,0.1,0.4c0,0.2,0,0.3-0.1,0.4
				s-0.2,0.2-0.3,0.2C314.1,259.4,314,259.2,314,258.8z M314.7,267h-0.6v-6.4h0.6V267z"/>
			<path class="st2" d="M319.3,260.5c0.3,0,0.6,0,0.9,0.1l-0.1,0.6c-0.3-0.1-0.5-0.1-0.8-0.1c-0.5,0-1,0.2-1.3,0.7s-0.5,1-0.5,1.7
				v3.5h-0.6v-6.4h0.5l0.1,1.1h0c0.3-0.5,0.5-0.8,0.8-1S318.9,260.5,319.3,260.5z"/>
		</g>
	</g>
	<circle class="st13" cx="326.3" cy="239.6" r="11.7"/>
	<circle class="st13" cx="340" cy="264.4" r="11.7"/>
	<circle class="st13" cx="328.3" cy="289.2" r="11.7"/>
	<g>
		<path class="st12" d="M352.8,237c0,1.4-0.4,2.5-1.1,3.3s-1.9,1.1-3.3,1.1h-2.1v-8.6h2.3c1.4,0,2.4,0.4,3.1,1.1
			S352.8,235.6,352.8,237z M352.2,237c0-1.2-0.3-2.1-0.9-2.8s-1.5-0.9-2.7-0.9h-1.6v7.5h1.4C350.9,240.8,352.2,239.6,352.2,237z"/>
		<path class="st12" d="M357.2,241.5c-0.9,0-1.6-0.3-2.2-0.9s-0.8-1.4-0.8-2.4c0-1,0.2-1.8,0.8-2.4s1.2-0.9,2-0.9
			c0.8,0,1.3,0.3,1.8,0.8s0.7,1.2,0.7,2.1v0.5h-4.6c0,0.9,0.2,1.5,0.6,2s1,0.7,1.7,0.7c0.4,0,0.7,0,1-0.1s0.6-0.2,1-0.3v0.5
			c-0.4,0.2-0.7,0.3-1,0.3S357.6,241.5,357.2,241.5z M357.1,235.4c-0.6,0-1.1,0.2-1.5,0.6s-0.6,1-0.7,1.7h3.9c0-0.7-0.2-1.3-0.5-1.7
			S357.6,235.4,357.1,235.4z"/>
		<path class="st12" d="M362.6,241.4l-2.5-6.4h0.6l1.6,4.3c0.2,0.6,0.4,1,0.5,1.5h0c0.2-0.5,0.3-1,0.5-1.5l1.6-4.3h0.6l-2.5,6.4
			H362.6z"/>
		<path class="st12" d="M377.2,237.1c0,1.4-0.3,2.4-1,3.2s-1.6,1.2-2.8,1.2c-1.2,0-2.1-0.4-2.8-1.2s-1-1.9-1-3.2
			c0-1.4,0.3-2.4,1-3.2s1.6-1.2,2.8-1.2c1.2,0,2.1,0.4,2.8,1.2S377.2,235.7,377.2,237.1z M370.2,237.1c0,1.2,0.3,2.2,0.8,2.8
			s1.3,1,2.4,1c1,0,1.8-0.3,2.4-1s0.8-1.6,0.8-2.9c0-1.2-0.3-2.2-0.8-2.8s-1.3-1-2.4-1c-1,0-1.8,0.3-2.4,1S370.2,235.9,370.2,237.1z
			"/>
		<path class="st12" d="M381.8,241.5c-1,0-1.7-0.4-2.1-1.1h0l0,0.5c0,0.3,0,0.6,0,0.9v2.4H379V235h0.5l0.1,0.9h0
			c0.4-0.7,1.1-1,2.1-1c0.9,0,1.5,0.3,2,0.8s0.7,1.4,0.7,2.5c0,1-0.2,1.9-0.7,2.4S382.6,241.5,381.8,241.5z M381.8,241
			c0.7,0,1.2-0.2,1.5-0.7s0.5-1.2,0.5-2c0-1.9-0.7-2.8-2-2.8c-0.7,0-1.3,0.2-1.6,0.6s-0.5,1.1-0.5,2v0.2c0,1,0.2,1.7,0.5,2.1
			S381,241,381.8,241z"/>
		<path class="st12" d="M390.1,239.7c0,0.6-0.2,1-0.7,1.3s-1,0.5-1.8,0.5c-0.9,0-1.5-0.1-2-0.4v-0.6c0.6,0.3,1.3,0.5,2,0.5
			c0.6,0,1.1-0.1,1.4-0.3s0.5-0.5,0.5-0.8c0-0.3-0.1-0.6-0.4-0.8s-0.7-0.4-1.3-0.6c-0.6-0.2-1.1-0.4-1.3-0.6s-0.5-0.4-0.6-0.6
			s-0.2-0.5-0.2-0.8c0-0.5,0.2-0.9,0.6-1.1s1-0.4,1.7-0.4c0.7,0,1.3,0.1,2,0.4l-0.2,0.5c-0.6-0.3-1.2-0.4-1.7-0.4
			c-0.5,0-0.9,0.1-1.2,0.3s-0.5,0.4-0.5,0.7c0,0.3,0.1,0.6,0.4,0.8s0.7,0.4,1.4,0.7c0.6,0.2,1,0.4,1.3,0.6s0.5,0.4,0.6,0.6
			S390.1,239.4,390.1,239.7z"/>
	</g>
	<g>
		<path class="st12" d="M348.4,295.2l-3.2-7.9h0c0,0.5,0,1,0,1.5v6.4h-0.6v-8.6h0.9l3,7.5h0l3-7.5h0.9v8.6H352v-6.5
			c0-0.5,0-0.9,0.1-1.4h0l-3.2,7.9H348.4z"/>
		<path class="st12" d="M358.7,295.2l-0.1-1h0c-0.3,0.4-0.6,0.7-1,0.9s-0.7,0.3-1.2,0.3c-0.6,0-1.1-0.2-1.5-0.5s-0.5-0.8-0.5-1.3
			c0-0.6,0.3-1.1,0.8-1.4s1.3-0.5,2.2-0.5l1.2,0V291c0-0.6-0.1-1.1-0.4-1.4s-0.6-0.5-1.2-0.5c-0.6,0-1.2,0.2-1.8,0.5l-0.2-0.5
			c0.7-0.3,1.4-0.5,2.1-0.5c0.7,0,1.2,0.2,1.6,0.5s0.5,0.9,0.5,1.7v4.2H358.7z M356.4,294.8c0.7,0,1.2-0.2,1.6-0.6s0.6-0.9,0.6-1.6
			v-0.6l-1.1,0c-0.9,0-1.5,0.2-1.9,0.4s-0.6,0.6-0.6,1.1c0,0.4,0.1,0.7,0.4,0.9S355.9,294.8,356.4,294.8z"/>
		<path class="st12" d="M363.7,288.7c0.3,0,0.6,0,0.9,0.1l-0.1,0.6c-0.3-0.1-0.5-0.1-0.8-0.1c-0.5,0-1,0.2-1.3,0.7s-0.5,1-0.5,1.7
			v3.5h-0.6v-6.4h0.5l0.1,1.1h0c0.3-0.5,0.5-0.8,0.8-1S363.3,288.7,363.7,288.7z"/>
		<path class="st12" d="M366.4,292.4l3.3-3.6h0.7l-2.5,2.7l2.7,3.7h-0.7l-2.4-3.2l-1,0.9v2.3h-0.6v-9.1h0.6v4.6L366.4,292.4
			L366.4,292.4z"/>
		<path class="st12" d="M374.2,295.3c-0.9,0-1.6-0.3-2.2-0.9s-0.8-1.4-0.8-2.4c0-1,0.2-1.8,0.8-2.4s1.2-0.9,2-0.9
			c0.8,0,1.3,0.3,1.8,0.8s0.7,1.2,0.7,2.1v0.5h-4.6c0,0.9,0.2,1.5,0.6,2s1,0.7,1.7,0.7c0.4,0,0.7,0,1-0.1s0.6-0.2,1-0.3v0.5
			c-0.4,0.2-0.7,0.3-1,0.3S374.6,295.3,374.2,295.3z M374.1,289.2c-0.6,0-1.1,0.2-1.5,0.6s-0.6,1-0.7,1.7h3.9c0-0.7-0.2-1.3-0.5-1.7
			S374.6,289.2,374.1,289.2z"/>
		<path class="st12" d="M379.9,294.8c0.4,0,0.7,0,1-0.1v0.5c-0.3,0.1-0.6,0.1-1,0.1c-0.6,0-1-0.2-1.2-0.5s-0.4-0.8-0.4-1.4v-4.1
			h-0.9V289l0.9-0.3l0.3-1.4h0.3v1.5h1.9v0.5h-1.9v4c0,0.5,0.1,0.8,0.3,1.1S379.6,294.8,379.9,294.8z"/>
		<path class="st12" d="M382.2,287c0-0.4,0.1-0.6,0.4-0.6c0.1,0,0.2,0,0.3,0.1s0.1,0.2,0.1,0.4c0,0.2,0,0.3-0.1,0.4
			s-0.2,0.2-0.3,0.2C382.3,287.6,382.2,287.4,382.2,287z M382.9,295.2h-0.6v-6.4h0.6V295.2z"/>
		<path class="st12" d="M389.4,295.2V291c0-0.6-0.1-1.1-0.4-1.4s-0.7-0.4-1.3-0.4c-0.8,0-1.3,0.2-1.7,0.6s-0.5,1-0.5,1.9v3.5H385
			v-6.4h0.5l0.1,0.9h0c0.4-0.7,1.2-1,2.2-1c1.4,0,2.2,0.8,2.2,2.3v4.2H389.4z"/>
		<path class="st12" d="M397,288.8v0.4l-1.3,0.1c0.4,0.4,0.5,0.9,0.5,1.4c0,0.6-0.2,1.1-0.6,1.5s-1,0.6-1.6,0.6c-0.3,0-0.5,0-0.6,0
			c-0.2,0.1-0.4,0.3-0.5,0.4s-0.2,0.3-0.2,0.5c0,0.2,0.1,0.4,0.2,0.4s0.4,0.1,0.8,0.1h1.1c0.7,0,1.2,0.1,1.6,0.4s0.6,0.7,0.6,1.2
			c0,0.7-0.3,1.2-0.8,1.6s-1.3,0.5-2.3,0.5c-0.8,0-1.4-0.2-1.9-0.5s-0.7-0.7-0.7-1.3c0-0.4,0.1-0.8,0.4-1.1s0.6-0.5,1.1-0.6
			c-0.2-0.1-0.3-0.2-0.5-0.3s-0.2-0.3-0.2-0.5c0-0.4,0.3-0.8,0.8-1.1c-0.4-0.2-0.7-0.4-0.9-0.7s-0.3-0.7-0.3-1.1
			c0-0.6,0.2-1.1,0.6-1.5s1-0.6,1.6-0.6c0.4,0,0.7,0,1,0.1H397z M391.9,296.3c0,0.9,0.7,1.3,2,1.3c1.7,0,2.5-0.5,2.5-1.6
			c0-0.4-0.1-0.7-0.4-0.8s-0.7-0.3-1.3-0.3h-1C392.5,294.9,391.9,295.3,391.9,296.3z M392.4,290.8c0,0.5,0.1,0.9,0.4,1.1
			s0.7,0.4,1.2,0.4c0.5,0,0.9-0.1,1.2-0.4s0.4-0.7,0.4-1.2c0-0.5-0.1-1-0.4-1.2s-0.7-0.4-1.2-0.4c-0.5,0-0.9,0.1-1.2,0.4
			S392.4,290.3,392.4,290.8z"/>
	</g>
	<g>
		<path class="st12" d="M357.3,268.5h-0.6v-8.6h4.7v0.6h-4.1v3.6h3.9v0.6h-3.9V268.5z"/>
		<path class="st12" d="M362.5,260.4c0-0.4,0.1-0.6,0.4-0.6c0.1,0,0.2,0,0.3,0.1s0.1,0.2,0.1,0.4c0,0.2,0,0.3-0.1,0.4
			s-0.2,0.2-0.3,0.2C362.6,260.9,362.5,260.7,362.5,260.4z M363.1,268.5h-0.6v-6.4h0.6V268.5z"/>
		<path class="st12" d="M369.7,268.5v-4.1c0-0.6-0.1-1.1-0.4-1.4s-0.7-0.4-1.3-0.4c-0.8,0-1.3,0.2-1.7,0.6s-0.5,1-0.5,1.9v3.5h-0.6
			v-6.4h0.5l0.1,0.9h0c0.4-0.7,1.2-1,2.2-1c1.4,0,2.2,0.8,2.2,2.3v4.2H369.7z"/>
		<path class="st12" d="M375.2,259.9l-3.2,8.6h-0.6l3.2-8.6H375.2z"/>
		<path class="st12" d="M376.6,268.5v-8.6h0.6v8.6H376.6z"/>
		<path class="st12" d="M380.2,264.8v3.7h-0.6v-8.6h2c1.1,0,1.8,0.2,2.4,0.6s0.8,1,0.8,1.8c0,0.6-0.2,1.1-0.5,1.5s-0.8,0.7-1.4,0.8
			l2.3,3.9h-0.7l-2.2-3.7H380.2z M380.2,264.3h1.6c0.7,0,1.3-0.2,1.7-0.5s0.6-0.8,0.6-1.4c0-0.7-0.2-1.1-0.6-1.4s-1-0.4-1.9-0.4
			h-1.4V264.3z"/>
	</g>
</g>
<g>
	<circle class="st14" cx="217" cy="177.5" r="29.4"/>
	<g>
		<rect x="188.7" y="172.1" class="st5" width="56" height="13.2"/>
		<g class="st1">
			<path class="st2" d="M209.1,175.1c0,0.8-0.3,1.5-0.8,1.9s-1.4,0.7-2.4,0.7h-1.3v3.5h-0.6v-8.6h2.1
				C208,172.7,209.1,173.5,209.1,175.1z M204.5,177.2h1.2c1,0,1.7-0.2,2.1-0.5s0.6-0.8,0.6-1.5c0-0.7-0.2-1.1-0.6-1.5
				s-1-0.5-1.9-0.5h-1.4V177.2z"/>
			<path class="st2" d="M213.3,174.8c0.3,0,0.6,0,0.9,0.1l-0.1,0.6c-0.3-0.1-0.5-0.1-0.8-0.1c-0.5,0-1,0.2-1.3,0.7s-0.5,1-0.5,1.7
				v3.5h-0.6v-6.4h0.5l0.1,1.1h0c0.3-0.5,0.5-0.8,0.8-1S212.9,174.8,213.3,174.8z"/>
			<path class="st2" d="M220.7,178.1c0,1-0.3,1.9-0.8,2.4s-1.2,0.9-2.1,0.9c-0.6,0-1.1-0.1-1.5-0.4s-0.8-0.7-1-1.2s-0.3-1.1-0.3-1.7
				c0-1,0.3-1.8,0.8-2.4s1.2-0.9,2.1-0.9c0.9,0,1.6,0.3,2.1,0.9S220.7,177,220.7,178.1z M215.7,178.1c0,0.9,0.2,1.6,0.6,2
				s0.9,0.7,1.6,0.7s1.2-0.2,1.6-0.7s0.6-1.2,0.6-2c0-0.9-0.2-1.6-0.6-2s-0.9-0.7-1.6-0.7s-1.2,0.2-1.6,0.7S215.7,177.2,215.7,178.1
				z"/>
			<path class="st2" d="M221.6,184.1c-0.3,0-0.6,0-0.8-0.1v-0.5c0.3,0.1,0.5,0.1,0.8,0.1c0.6,0,0.9-0.3,0.9-1v-7.7h0.6v7.6
				c0,0.5-0.1,0.9-0.4,1.2S222.1,184.1,221.6,184.1z M222.4,173.1c0-0.4,0.1-0.6,0.4-0.6c0.1,0,0.2,0,0.3,0.1s0.1,0.2,0.1,0.4
				c0,0.2,0,0.3-0.1,0.4s-0.2,0.2-0.3,0.2C222.5,173.7,222.4,173.5,222.4,173.1z"/>
			<path class="st2" d="M230.6,181.3h-0.7l-2.5-4l-2.6,4h-0.7l2.9-4.5l-2.6-4.1h0.7l2.3,3.7l2.3-3.7h0.6l-2.7,4.1L230.6,181.3z"/>
		</g>
	</g>
	<circle class="st15" cx="236.6" cy="153.3" r="11.7"/>
	<circle class="st15" cx="250.3" cy="178" r="11.7"/>
	<circle class="st15" cx="238.6" cy="202.9" r="11.7"/>
	<g>
		<path class="st14" d="M263.2,150.6c0,1.4-0.4,2.5-1.1,3.3s-1.9,1.1-3.3,1.1h-2.1v-8.6h2.3c1.4,0,2.4,0.4,3.1,1.1
			S263.2,149.3,263.2,150.6z M262.5,150.7c0-1.2-0.3-2.1-0.9-2.8s-1.5-0.9-2.7-0.9h-1.6v7.5h1.4
			C261.2,154.5,262.5,153.2,262.5,150.7z"/>
		<path class="st14" d="M267.5,155.1c-0.9,0-1.6-0.3-2.2-0.9s-0.8-1.4-0.8-2.4c0-1,0.2-1.8,0.8-2.4s1.2-0.9,2-0.9
			c0.8,0,1.3,0.3,1.8,0.8s0.7,1.2,0.7,2.1v0.5h-4.6c0,0.9,0.2,1.5,0.6,2s1,0.7,1.7,0.7c0.4,0,0.7,0,1-0.1s0.6-0.2,1-0.3v0.5
			c-0.4,0.2-0.7,0.3-1,0.3S267.9,155.1,267.5,155.1z M267.4,149c-0.6,0-1.1,0.2-1.5,0.6s-0.6,1-0.7,1.7h3.9c0-0.7-0.2-1.3-0.5-1.7
			S267.9,149,267.4,149z"/>
		<path class="st14" d="M273,155l-2.5-6.4h0.6l1.6,4.3c0.2,0.6,0.4,1,0.5,1.5h0c0.2-0.5,0.3-1,0.5-1.5l1.6-4.3h0.6l-2.5,6.4H273z"/>
		<path class="st14" d="M287.5,150.7c0,1.4-0.3,2.4-1,3.2s-1.6,1.2-2.8,1.2c-1.2,0-2.1-0.4-2.8-1.2s-1-1.9-1-3.2
			c0-1.4,0.3-2.4,1-3.2s1.6-1.2,2.8-1.2c1.2,0,2.1,0.4,2.8,1.2S287.5,149.4,287.5,150.7z M280.5,150.7c0,1.2,0.3,2.2,0.8,2.8
			s1.3,1,2.4,1c1,0,1.8-0.3,2.4-1s0.8-1.6,0.8-2.9c0-1.2-0.3-2.2-0.8-2.8s-1.3-1-2.4-1c-1,0-1.8,0.3-2.4,1S280.5,149.5,280.5,150.7z
			"/>
		<path class="st14" d="M292.1,155.1c-1,0-1.7-0.4-2.1-1.1h0l0,0.5c0,0.3,0,0.6,0,0.9v2.4h-0.6v-9.3h0.5l0.1,0.9h0
			c0.4-0.7,1.1-1,2.1-1c0.9,0,1.5,0.3,2,0.8s0.7,1.4,0.7,2.5c0,1-0.2,1.9-0.7,2.4S292.9,155.1,292.1,155.1z M292.1,154.6
			c0.7,0,1.2-0.2,1.5-0.7s0.5-1.2,0.5-2c0-1.9-0.7-2.8-2-2.8c-0.7,0-1.3,0.2-1.6,0.6s-0.5,1.1-0.5,2v0.2c0,1,0.2,1.7,0.5,2.1
			S291.3,154.6,292.1,154.6z"/>
		<path class="st14" d="M300.4,153.4c0,0.6-0.2,1-0.7,1.3s-1,0.5-1.8,0.5c-0.9,0-1.5-0.1-2-0.4v-0.6c0.6,0.3,1.3,0.5,2,0.5
			c0.6,0,1.1-0.1,1.4-0.3s0.5-0.5,0.5-0.8c0-0.3-0.1-0.6-0.4-0.8s-0.7-0.4-1.3-0.6c-0.6-0.2-1.1-0.4-1.3-0.6s-0.5-0.4-0.6-0.6
			s-0.2-0.5-0.2-0.8c0-0.5,0.2-0.9,0.6-1.1s1-0.4,1.7-0.4c0.7,0,1.3,0.1,2,0.4l-0.2,0.5c-0.6-0.3-1.2-0.4-1.7-0.4
			c-0.5,0-0.9,0.1-1.2,0.3s-0.5,0.4-0.5,0.7c0,0.3,0.1,0.6,0.4,0.8s0.7,0.4,1.4,0.7c0.6,0.2,1,0.4,1.3,0.6s0.5,0.4,0.6,0.6
			S300.4,153.1,300.4,153.4z"/>
	</g>
	<g>
		<path class="st14" d="M258.7,208.8l-3.2-7.9h0c0,0.5,0,1,0,1.5v6.4h-0.6v-8.6h0.9l3,7.5h0l3-7.5h0.9v8.6h-0.6v-6.5
			c0-0.5,0-0.9,0.1-1.4h0l-3.2,7.9H258.7z"/>
		<path class="st14" d="M269,208.8l-0.1-1h0c-0.3,0.4-0.6,0.7-1,0.9s-0.7,0.3-1.2,0.3c-0.6,0-1.1-0.2-1.5-0.5s-0.5-0.8-0.5-1.3
			c0-0.6,0.3-1.1,0.8-1.4s1.3-0.5,2.2-0.5l1.2,0v-0.4c0-0.6-0.1-1.1-0.4-1.4s-0.6-0.5-1.2-0.5c-0.6,0-1.2,0.2-1.8,0.5l-0.2-0.5
			c0.7-0.3,1.4-0.5,2.1-0.5c0.7,0,1.2,0.2,1.6,0.5s0.5,0.9,0.5,1.7v4.2H269z M266.7,208.4c0.7,0,1.2-0.2,1.6-0.6s0.6-0.9,0.6-1.6
			v-0.6l-1.1,0c-0.9,0-1.5,0.2-1.9,0.4s-0.6,0.6-0.6,1.1c0,0.4,0.1,0.7,0.4,0.9S266.2,208.4,266.7,208.4z"/>
		<path class="st14" d="M274,202.3c0.3,0,0.6,0,0.9,0.1l-0.1,0.6c-0.3-0.1-0.5-0.1-0.8-0.1c-0.5,0-1,0.2-1.3,0.7s-0.5,1-0.5,1.7v3.5
			h-0.6v-6.4h0.5l0.1,1.1h0c0.3-0.5,0.5-0.8,0.8-1S273.6,202.3,274,202.3z"/>
		<path class="st14" d="M276.7,206l3.3-3.6h0.7l-2.5,2.7l2.7,3.7h-0.7l-2.4-3.2l-1,0.9v2.3h-0.6v-9.1h0.6v4.6L276.7,206L276.7,206z"
			/>
		<path class="st14" d="M284.6,208.9c-0.9,0-1.6-0.3-2.2-0.9s-0.8-1.4-0.8-2.4c0-1,0.2-1.8,0.8-2.4s1.2-0.9,2-0.9
			c0.8,0,1.3,0.3,1.8,0.8s0.7,1.2,0.7,2.1v0.5h-4.6c0,0.9,0.2,1.5,0.6,2s1,0.7,1.7,0.7c0.4,0,0.7,0,1-0.1s0.6-0.2,1-0.3v0.5
			c-0.4,0.2-0.7,0.3-1,0.3S284.9,208.9,284.6,208.9z M284.4,202.8c-0.6,0-1.1,0.2-1.5,0.6s-0.6,1-0.7,1.7h3.9c0-0.7-0.2-1.3-0.5-1.7
			S285,202.8,284.4,202.8z"/>
		<path class="st14" d="M290.2,208.4c0.4,0,0.7,0,1-0.1v0.5c-0.3,0.1-0.6,0.1-1,0.1c-0.6,0-1-0.2-1.2-0.5s-0.4-0.8-0.4-1.4v-4.1
			h-0.9v-0.3l0.9-0.3l0.3-1.4h0.3v1.5h1.9v0.5h-1.9v4c0,0.5,0.1,0.8,0.3,1.1S289.9,208.4,290.2,208.4z"/>
		<path class="st14" d="M292.5,200.7c0-0.4,0.1-0.6,0.4-0.6c0.1,0,0.2,0,0.3,0.1s0.1,0.2,0.1,0.4c0,0.2,0,0.3-0.1,0.4
			s-0.2,0.2-0.3,0.2C292.6,201.2,292.5,201.1,292.5,200.7z M293.2,208.8h-0.6v-6.4h0.6V208.8z"/>
		<path class="st14" d="M299.7,208.8v-4.1c0-0.6-0.1-1.1-0.4-1.4s-0.7-0.4-1.3-0.4c-0.8,0-1.3,0.2-1.7,0.6s-0.5,1-0.5,1.9v3.5h-0.6
			v-6.4h0.5l0.1,0.9h0c0.4-0.7,1.2-1,2.2-1c1.4,0,2.2,0.8,2.2,2.3v4.2H299.7z"/>
		<path class="st14" d="M307.3,202.4v0.4l-1.3,0.1c0.4,0.4,0.5,0.9,0.5,1.4c0,0.6-0.2,1.1-0.6,1.5s-1,0.6-1.6,0.6
			c-0.3,0-0.5,0-0.6,0c-0.2,0.1-0.4,0.3-0.5,0.4s-0.2,0.3-0.2,0.5c0,0.2,0.1,0.4,0.2,0.4s0.4,0.1,0.8,0.1h1.1c0.7,0,1.2,0.1,1.6,0.4
			s0.6,0.7,0.6,1.2c0,0.7-0.3,1.2-0.8,1.6s-1.3,0.5-2.3,0.5c-0.8,0-1.4-0.2-1.9-0.5s-0.7-0.7-0.7-1.3c0-0.4,0.1-0.8,0.4-1.1
			s0.6-0.5,1.1-0.6c-0.2-0.1-0.3-0.2-0.5-0.3s-0.2-0.3-0.2-0.5c0-0.4,0.3-0.8,0.8-1.1c-0.4-0.2-0.7-0.4-0.9-0.7s-0.3-0.7-0.3-1.1
			c0-0.6,0.2-1.1,0.6-1.5s1-0.6,1.6-0.6c0.4,0,0.7,0,1,0.1H307.3z M302.2,209.9c0,0.9,0.7,1.3,2,1.3c1.7,0,2.5-0.5,2.5-1.6
			c0-0.4-0.1-0.7-0.4-0.8s-0.7-0.3-1.3-0.3h-1C302.8,208.5,302.2,209,302.2,209.9z M302.7,204.4c0,0.5,0.1,0.9,0.4,1.1
			s0.7,0.4,1.2,0.4c0.5,0,0.9-0.1,1.2-0.4s0.4-0.7,0.4-1.2c0-0.5-0.1-1-0.4-1.2s-0.7-0.4-1.2-0.4c-0.5,0-0.9,0.1-1.2,0.4
			S302.7,203.9,302.7,204.4z"/>
	</g>
	<g>
		<path class="st14" d="M267.6,182.1H267v-8.6h4.7v0.6h-4.1v3.6h3.9v0.6h-3.9V182.1z"/>
		<path class="st14" d="M272.8,174c0-0.4,0.1-0.6,0.4-0.6c0.1,0,0.2,0,0.3,0.1s0.1,0.2,0.1,0.4c0,0.2,0,0.3-0.1,0.4
			s-0.2,0.2-0.3,0.2C272.9,174.6,272.8,174.4,272.8,174z M273.4,182.1h-0.6v-6.4h0.6V182.1z"/>
		<path class="st14" d="M280,182.1V178c0-0.6-0.1-1.1-0.4-1.4s-0.7-0.4-1.3-0.4c-0.8,0-1.3,0.2-1.7,0.6s-0.5,1-0.5,1.9v3.5h-0.6
			v-6.4h0.5l0.1,0.9h0c0.4-0.7,1.2-1,2.2-1c1.4,0,2.2,0.8,2.2,2.3v4.2H280z"/>
		<path class="st14" d="M285.5,173.6l-3.2,8.6h-0.6l3.2-8.6H285.5z"/>
		<path class="st14" d="M286.9,182.1v-8.6h0.6v8.6H286.9z"/>
		<path class="st14" d="M290.5,178.4v3.7h-0.6v-8.6h2c1.1,0,1.8,0.2,2.4,0.6s0.8,1,0.8,1.8c0,0.6-0.2,1.1-0.5,1.5s-0.8,0.7-1.4,0.8
			l2.3,3.9h-0.7l-2.2-3.7H290.5z M290.5,177.9h1.6c0.7,0,1.3-0.2,1.7-0.5s0.6-0.8,0.6-1.4c0-0.7-0.2-1.1-0.6-1.4s-1-0.4-1.9-0.4
			h-1.4V177.9z"/>
	</g>
</g>
</svg>
