<?xml version="1.0" encoding="utf-8"?>
<!-- Generator: Adobe Illustrator 19.0.0, SVG Export Plug-In . SVG Version: 6.00 Build 0)  -->
<svg version="1.1" id="Layer_1" xmlns="http://www.w3.org/2000/svg" xmlns:xlink="http://www.w3.org/1999/xlink" x="0px" y="0px"
	 viewBox="350 -350 1000 1000" style="enable-background:new 350 -350 1000 1000;" xml:space="preserve">
<style type="text/css">
	.st0{fill:#EDC459;}
	.st1{fill:#EAB259;}
	.st2{fill:none;stroke:#FFFFFF;stroke-width:40;stroke-miterlimit:10;}
	.st3{fill:none;stroke:#FFFFFF;stroke-width:9;stroke-miterlimit:10;}
	.st4{fill:#FFFFFF;}
	.st5{font-family:'Montserrat-Bold';}
	.st6{font-size:286.0961px;}
	.st7{fill:none;stroke:#FFFFFF;stroke-width:11;stroke-miterlimit:10;}
</style>
<rect x="351" y="-349" class="st0" width="999" height="999"/>
<path class="st1" d="M1108.2-30.6"/>
<path class="st1" d="M643.6-30.8"/>
<g>
	<path class="st2" d="M674.4,396.5C559.6,281.7,559.6,95.7,674.3-19C789-133.8,975-133.7,1089.8-18.9
		c114.8,114.8,114.9,300.8,0.1,415.5C975.2,511.4,789.2,511.3,674.4,396.5z"/>
</g>
<g>
	<path class="st3" d="M658.7,412.3c-123.4-123.4-123.4-323.5,0-447c123.4-123.4,323.5-123.4,447,0"/>
</g>
<text transform="matrix(1 0 0 1 751.4376 286.5889)" class="st4 st5 st6">M</text>
<path class="st7" d="M1120.2-45.1"/>
<path class="st7" d="M655.5-45.3"/>
<polygon class="st4" points="1089.8,-18.9 1027.5,-81.3 1118.5,-138.1 1163.8,-92.9 "/>
<polygon class="st4" points="614.5,336.6 674.4,396.5 600.5,470.5 557.6,427.7 "/>
<polygon class="st4" points="589.6,103.6 589.6,279.9 485,255.8 485,127.8 "/>
<polygon class="st4" points="736.7,-78.8 612,45.9 555.2,-45.1 645.7,-135.7 "/>
<polygon class="st4" points="969.8,-103.7 793.4,-103.7 817.6,-208.3 945.6,-208.3 "/>
</svg>
