<?xml version="1.0" encoding="utf-8"?>
<!-- Generator: Adobe Illustrator 19.0.0, SVG Export Plug-In . SVG Version: 6.00 Build 0)  -->
<svg version="1.1" id="Layer_1" xmlns="http://www.w3.org/2000/svg" xmlns:xlink="http://www.w3.org/1999/xlink" x="0px" y="0px"
	 viewBox="350 -350 1000 1000" style="enable-background:new 350 -350 1000 1000;" xml:space="preserve">
<style type="text/css">
	.st0{fill:#EDC459;}
	.st1{fill:#EAB259;}
	.st2{fill:none;stroke:#FFFFFF;stroke-width:40;stroke-miterlimit:10;}
	.st3{fill:none;stroke:#FFFFFF;stroke-width:9;stroke-miterlimit:10;}
	.st4{enable-background:new    ;}
	.st5{fill:#FFFFFF;}
	.st6{fill:none;stroke:#FFFFFF;stroke-width:11;stroke-miterlimit:10;}
</style>
<rect x="350.5" y="-349.5" class="st0" width="999" height="999"/>
<path class="st1" d="M1107.7-31.1"/>
<path class="st1" d="M643.1-31.3"/>
<g>
	<path class="st2" d="M673.9,396C559.1,281.2,559.1,95.2,673.8-19.5c114.7-114.8,300.7-114.7,415.5,0.1s114.9,300.8,0.1,415.5
		C974.7,510.9,788.7,510.8,673.9,396z"/>
</g>
<g>
	<path class="st3" d="M658.2,411.8c-123.4-123.4-123.4-323.5,0-447c123.4-123.4,323.5-123.4,447,0"/>
</g>
<g class="st4">
	<path class="st5" d="M946.1,286.1l-0.3-130.2l-48.1,110.1h-33.2l-48.1-110.1v130.2H771V85.5h55.8l54.4,119.3l54.4-119.3H991v200.6
		H946.1z"/>
</g>
<path class="st6" d="M1119.7-45.6"/>
<path class="st6" d="M655-45.8"/>
<polygon class="st5" points="1089.3,-19.4 1027,-81.8 1118,-138.6 1163.3,-93.4 "/>
<polygon class="st5" points="614,336.1 673.9,396 600,470 557.1,427.2 "/>
<polygon class="st5" points="589.1,103.1 589.1,279.4 484.5,255.3 484.5,127.3 "/>
<polygon class="st5" points="736.2,-79.3 611.5,45.4 554.7,-45.6 645.2,-136.2 "/>
<polygon class="st5" points="969.3,-104.2 792.9,-104.2 817.1,-208.8 945.1,-208.8 "/>
</svg>
