<?xml version="1.0" encoding="utf-8"?>
<!-- Generator: Adobe Illustrator 19.0.0, SVG Export Plug-In . SVG Version: 6.00 Build 0)  -->
<svg version="1.1" id="Layer_1" xmlns="http://www.w3.org/2000/svg" xmlns:xlink="http://www.w3.org/1999/xlink" x="0px" y="0px"
	 viewBox="0 0 1000 1000" style="enable-background:new 0 0 1000 1000;" xml:space="preserve">
<style type="text/css">
	.st0{fill:#EDC459;}
	.st1{fill:#EAB259;}
	.st2{font-family:'Montserrat-Bold';}
	.st3{font-size:286.0961px;}
	.st4{fill:none;stroke:#FFFFFF;stroke-width:40;stroke-miterlimit:10;}
	.st5{fill:none;stroke:#FFFFFF;stroke-width:9;stroke-miterlimit:10;}
	.st6{fill:#FFFFFF;}
	.st7{fill:none;stroke:#FFFFFF;stroke-width:11;stroke-miterlimit:10;}
</style>
<rect x="1" y="1" class="st0" width="999" height="999"/>
<text transform="matrix(1 0 0 1 389.5265 651.0977)" class="st1 st2 st3">M</text>
<path class="st1" d="M758.2,319.4"/>
<path class="st1" d="M293.6,319.2"/>
<polygon class="st1" points="727.9,345.6 665.6,283.3 756.6,226.4 801.9,271.7 "/>
<polygon class="st1" points="252.6,701.1 312.5,761 238.6,835 195.7,792.2 "/>
<polygon class="st1" points="227.7,468.1 227.7,644.4 123.1,620.3 123.1,492.3 "/>
<polygon class="st1" points="374.8,285.7 250.1,410.4 193.3,319.4 283.8,228.8 "/>
<polygon class="st1" points="607.9,260.8 431.5,260.8 455.7,156.2 583.7,156.2 "/>
<g>
	<path class="st4" d="M324.4,746.5C209.6,631.7,209.6,445.7,324.3,331C439,216.2,625,216.3,739.8,331.1
		c114.8,114.8,114.9,300.8,0.1,415.5C625.2,861.4,439.2,861.3,324.4,746.5z"/>
</g>
<g>
	<path class="st5" d="M308.7,762.3c-123.4-123.4-123.4-323.5,0-447c123.4-123.4,323.5-123.4,447,0"/>
</g>
<text transform="matrix(1 0 0 1 401.4376 636.5889)" class="st6 st2 st3">M</text>
<path class="st7" d="M770.2,304.9"/>
<path class="st7" d="M305.5,304.7"/>
<polygon class="st6" points="739.8,331.1 677.5,268.7 768.5,211.9 813.8,257.1 "/>
<polygon class="st6" points="264.5,686.6 324.4,746.5 250.5,820.5 207.6,777.7 "/>
<polygon class="st6" points="239.6,453.6 239.6,629.9 135,605.8 135,477.8 "/>
<polygon class="st6" points="386.7,271.2 262,395.9 205.2,304.9 295.7,214.3 "/>
<polygon class="st6" points="619.8,246.3 443.4,246.3 467.6,141.7 595.6,141.7 "/>
</svg>
