<?xml version="1.0" encoding="utf-8"?>
<!-- Generator: Adobe Illustrator 19.0.0, SVG Export Plug-In . SVG Version: 6.00 Build 0)  -->
<svg version="1.1" id="Layer_1" xmlns="http://www.w3.org/2000/svg" xmlns:xlink="http://www.w3.org/1999/xlink" x="0px" y="0px"
	 viewBox="300 -300 1000 1000" style="enable-background:new 300 -300 1000 1000;" xml:space="preserve">
<style type="text/css">
	.st0{fill:#EDC459;}
	.st1{fill:#EAB259;}
	.st2{fill:none;stroke:#FFFFFF;stroke-width:40;stroke-miterlimit:10;}
	.st3{fill:none;stroke:#FFFFFF;stroke-width:9;stroke-miterlimit:10;}
	.st4{enable-background:new    ;}
	.st5{fill:#FFFFFF;}
	.st6{fill:none;stroke:#FFFFFF;stroke-width:11;stroke-miterlimit:10;}
</style>
<rect x="300.5" y="-299.5" class="st0" width="999" height="999"/>
<path class="st1" d="M1057.7,18.9"/>
<path class="st1" d="M593.1,18.7"/>
<g>
	<path class="st2" d="M623.9,446c-114.8-114.8-114.8-300.8-0.1-415.5c114.7-114.8,300.7-114.7,415.5,0.1s114.9,300.8,0.1,415.5
		C924.7,560.9,738.7,560.8,623.9,446z"/>
</g>
<g>
	<path class="st3" d="M608.2,461.8c-123.4-123.4-123.4-323.5,0-447c123.4-123.4,323.5-123.4,447,0"/>
</g>
<g class="st4">
	<path class="st5" d="M896.1,336.1l-0.3-130.2L847.7,316h-33.2l-48.1-110.1v130.2H721V135.5h55.8l54.4,119.3l54.4-119.3H941v200.6
		H896.1z"/>
</g>
<path class="st6" d="M1069.7,4.4"/>
<path class="st6" d="M605,4.2"/>
<polygon class="st5" points="539.1,153.1 539.1,329.4 434.5,305.3 434.5,177.3 "/>
<polygon class="st5" points="686.2,-29.3 561.5,95.4 504.7,4.4 595.2,-86.2 "/>
<polygon class="st5" points="919.3,-54.2 742.9,-54.2 767.1,-158.8 895.1,-158.8 "/>
<polygon class="st5" points="1066.7,-86.2 1157.2,4.4 1100.4,95.4 975.7,-29.3 "/>
<polygon class="st5" points="561.5,384.9 686.2,509.6 595.2,566.3 504.7,475.9 "/>
</svg>
