<?xml version="1.0" encoding="utf-8"?>
<!-- Generator: Adobe Illustrator 19.0.0, SVG Export Plug-In . SVG Version: 6.00 Build 0)  -->
<svg version="1.1" id="Layer_1" xmlns="http://www.w3.org/2000/svg" xmlns:xlink="http://www.w3.org/1999/xlink" x="0px" y="0px"
	 viewBox="0 0 300 300" style="enable-background:new 0 0 300 300;" xml:space="preserve">
<style type="text/css">
	.st0{fill:none;stroke:#FFFFFF;stroke-width:5;stroke-miterlimit:10;}
	.st1{enable-background:new    ;}
	.st2{fill:#FFFFFF;}
</style>
<rect id="XMLID_1_" class="st0" width="300" height="300"/>
<g class="st1">
	<path class="st2" d="M74.4,174.6c-6.6,0-11.4-2.5-14.5-7.4h-0.3l0.1,3.3c0.1,2,0.2,4.1,0.2,6.4v16.4H56v-62.5h3.3l0.8,6.1h0.2
		c3-4.6,7.7-7,14.2-7c5.8,0,10.2,1.9,13.3,5.7c3,3.8,4.6,9.4,4.6,16.6c0,7.1-1.6,12.5-4.8,16.4C84.4,172.7,80,174.6,74.4,174.6z
		 M74.4,171.1c4.4,0,7.8-1.6,10.2-4.9c2.4-3.3,3.6-7.8,3.6-13.7c0-12.6-4.6-18.9-13.7-18.9c-5,0-8.7,1.4-11,4.1
		c-2.3,2.8-3.5,7.2-3.5,13.5v1.3c0,6.7,1.1,11.5,3.4,14.4C65.6,169.7,69.3,171.1,74.4,171.1z"/>
	<path class="st2" d="M123.1,130c1.8,0,3.8,0.2,5.9,0.6l-0.8,3.8c-1.8-0.4-3.7-0.7-5.6-0.7c-3.7,0-6.7,1.6-9,4.7
		c-2.3,3.1-3.5,7-3.5,11.8v23.7h-3.9v-43h3.3l0.4,7.8h0.3c1.8-3.2,3.7-5.4,5.7-6.7C117.9,130.6,120.3,130,123.1,130z"/>
	<path class="st2" d="M175.2,152.3c0,7-1.7,12.5-5.1,16.4c-3.4,3.9-8.1,5.9-14.1,5.9c-3.8,0-7.1-0.9-10-2.7s-5.1-4.4-6.6-7.8
		c-1.5-3.4-2.3-7.3-2.3-11.8c0-7,1.7-12.5,5.1-16.4c3.4-3.9,8.1-5.9,14-5.9s10.5,2,13.9,6C173.5,139.9,175.2,145.3,175.2,152.3z
		 M141.3,152.3c0,5.9,1.3,10.5,3.9,13.8c2.6,3.3,6.3,5,11,5s8.4-1.7,11-5s3.9-7.9,3.9-13.8c0-5.9-1.3-10.5-3.9-13.8
		c-2.6-3.3-6.3-4.9-11.1-4.9s-8.4,1.6-11,4.9C142.6,141.7,141.3,146.3,141.3,152.3z"/>
	<path class="st2" d="M183.3,193.3c-2.1,0-3.9-0.3-5.3-1v-3.4c1.8,0.5,3.5,0.8,5.1,0.8c4,0,6-2.3,6-7v-51.9h3.9v51.3
		c0,3.6-0.8,6.3-2.5,8.2C188.8,192.3,186.4,193.3,183.3,193.3z M188.5,118.9c0-2.5,0.8-3.8,2.5-3.8c0.8,0,1.5,0.3,1.9,1
		c0.5,0.7,0.7,1.6,0.7,2.8c0,1.2-0.2,2.1-0.7,2.8c-0.5,0.7-1.1,1-1.9,1C189.4,122.7,188.5,121.4,188.5,118.9z"/>
</g>
<g class="st1">
	<path class="st2" d="M248.9,173.8h-7.6l-15.5-25.4L210,173.8h-7.1l19.2-30.2l-18-27.6h7.4l14.4,22.9l14.5-22.9h7.2l-17.9,27.4
		L248.9,173.8z"/>
</g>
</svg>
