<?xml version="1.0" encoding="utf-8"?>
<!-- Generator: Adobe Illustrator 19.0.0, SVG Export Plug-In . SVG Version: 6.00 Build 0)  -->
<svg version="1.1" id="Layer_1" xmlns="http://www.w3.org/2000/svg" xmlns:xlink="http://www.w3.org/1999/xlink" x="0px" y="0px"
	 viewBox="0 0 554 554" style="enable-background:new 0 0 554 554;" xml:space="preserve">
<style type="text/css">
	.st0{fill:none;stroke:#FFFFFF;stroke-width:8;stroke-linecap:round;stroke-miterlimit:10;}
	.st1{fill:none;stroke:#FEF304;stroke-width:6;stroke-linecap:round;stroke-miterlimit:10;}
</style>
<rect id="XMLID_2_" x="-0.4" y="-0.4" width="554.9" height="554.9"/>
<g id="XMLID_3_">
	<line id="XMLID_1_" class="st0" x1="68.3" y1="230.8" x2="138.6" y2="230.8"/>
	<line id="XMLID_5_" class="st0" x1="103.5" y1="230.8" x2="103.5" y2="328.7"/>
	<line id="XMLID_6_" class="st0" x1="173" y1="230.8" x2="173" y2="328.7"/>
	<line id="XMLID_7_" class="st0" x1="233.8" y1="230.8" x2="233.8" y2="328.7"/>
	<line id="XMLID_8_" class="st0" x1="173.5" y1="279.5" x2="233.7" y2="279.5"/>
	<line id="XMLID_9_" class="st0" x1="272" y1="230.8" x2="272" y2="328.7"/>
	<line id="XMLID_10_" class="st0" x1="309.1" y1="230.8" x2="309.1" y2="328.7"/>
	<line id="XMLID_11_" class="st0" x1="379" y1="230.8" x2="379" y2="328.7"/>
	<line id="XMLID_12_" class="st0" x1="379" y1="328.7" x2="309.1" y2="230.8"/>
	<line id="XMLID_13_" class="st0" x1="416.1" y1="230.8" x2="416.1" y2="328.7"/>
	<line id="XMLID_14_" class="st0" x1="485" y1="231.3" x2="416" y2="300.3"/>
	<line id="XMLID_15_" class="st0" x1="485.7" y1="328" x2="442.9" y2="273.3"/>
	<line id="XMLID_16_" class="st1" x1="293.9" y1="209.2" x2="321.7" y2="200.2"/>
	<line id="XMLID_17_" class="st1" x1="282.9" y1="196.3" x2="298.4" y2="170.5"/>
	<line id="XMLID_18_" class="st1" x1="251.4" y1="169.3" x2="265.2" y2="195.5"/>
	<line id="XMLID_19_" class="st1" x1="225.4" y1="196.2" x2="251.9" y2="207.3"/>
</g>
</svg>
