<?xml version="1.0" encoding="utf-8"?>
<!-- Generator: Adobe Illustrator 19.0.0, SVG Export Plug-In . SVG Version: 6.00 Build 0)  -->
<svg version="1.1" id="Layer_1" xmlns="http://www.w3.org/2000/svg" xmlns:xlink="http://www.w3.org/1999/xlink" x="0px" y="0px"
	 viewBox="0 0 300 300" style="enable-background:new 0 0 300 300;" xml:space="preserve">
<style type="text/css">
	.st0{fill:#5BA18E;}
	.st1{enable-background:new    ;}
	.st2{fill:#FFFFFF;}
</style>
<rect id="XMLID_1_" class="st0" width="300" height="300"/>
<g class="st1">
	<path class="st2" d="M60.4,143.3l-16.9-23.5h5.5L63.2,140l14.1-20.1h5.5L66,143.3l18.4,26h-5.7L63,147l-15.7,22.4h-5.5L60.4,143.3z
		"/>
	<path class="st2" d="M96,119.8h31.1v6.3h-24.4v15.5h22.7v6.3h-22.7v21.4H96V119.8z"/>
	<path class="st2" d="M153.1,119.8h6.1l21.2,49.5h-7.8l-5-12.2H144l-4.9,12.2h-7.8L153.1,119.8z M165.1,151.2l-9.2-22.7h-0.1
		l-9.4,22.7H165.1z"/>
	<path class="st2" d="M192,119.8h6.7v49.5H192V119.8z"/>
	<path class="st2" d="M216.7,119.8h17.4c3.2,0,5.8,0.4,7.8,1.3c2,0.9,3.7,2,4.9,3.3s2,2.8,2.5,4.5c0.5,1.7,0.7,3.3,0.7,4.8
		c0,1.6-0.3,3.1-0.8,4.6c-0.6,1.5-1.4,2.8-2.4,4s-2.3,2.2-3.8,3c-1.5,0.8-3.2,1.3-5.1,1.5l14.1,22.6h-8.4l-12.6-21.8h-7.5v21.8h-6.7
		V119.8z M223.4,141.6h8.8c1.3,0,2.6-0.1,3.9-0.3c1.3-0.2,2.4-0.6,3.4-1.2c1-0.6,1.8-1.4,2.4-2.4c0.6-1,0.9-2.4,0.9-4.1
		s-0.3-3-0.9-4.1c-0.6-1-1.4-1.9-2.4-2.4c-1-0.6-2.1-0.9-3.4-1.2c-1.3-0.2-2.6-0.3-3.9-0.3h-8.8V141.6z"/>
</g>
</svg>
